<svg xmlns="http://www.w3.org/2000/svg" xmlns:xlink="http://www.w3.org/1999/xlink" xmlns:lucid="lucid" width="1602" height="1762"><g transform="translate(21 21)" lucid:page-tab-id="0_0"><path d="M0 0h1760v2656H0z" fill="#fff"/><path d="M520 951.86h80v80c-13.36-13.36-21.68-13.36-26.72-13.36-8 0-18.64 13.36-26.64 13.36-4.96 0-13.36 0-26.64-13.36z" stroke="#000" stroke-width="2" fill="#b2d6ef"/><use xlink:href="#a" transform="matrix(1,0,0,1,525,956.8573268006679) translate(0 14.222222222222223)"/><path d="M840 951.86h80v80c-13.36-13.36-21.68-13.36-26.72-13.36-8 0-18.64 13.36-26.64 13.36-4.96 0-13.36 0-26.64-13.36z" stroke="#000" stroke-width="2" fill="#b2d6ef"/><use xlink:href="#b" transform="matrix(1,0,0,1,845,956.8573268006679) translate(0 14.222222222222223)"/><use xlink:href="#c" transform="matrix(1,0,0,1,845,956.8573268006679) translate(0 35.55555555555556)"/><path d="M680 951.86h80v80c-13.36-13.36-21.68-13.36-26.72-13.36-8 0-18.64 13.36-26.64 13.36-4.96 0-13.36 0-26.64-13.36z" stroke="#000" stroke-width="2" fill="#b2d6ef"/><use xlink:href="#d" transform="matrix(1,0,0,1,685,956.8573268006679) translate(0 14.222222222222223)"/><use xlink:href="#e" transform="matrix(1,0,0,1,685,956.8573268006679) translate(0 35.55555555555556)"/><path d="M540 971.86h80v80c-13.36-13.36-21.68-13.36-26.72-13.36-8 0-18.64 13.36-26.64 13.36-4.96 0-13.36 0-26.64-13.36z" stroke="#000" stroke-width="2" fill="#b2d6ef"/><use xlink:href="#a" transform="matrix(1,0,0,1,545,976.8573268006684) translate(0 14.222222222222223)"/><path d="M560 991.86h80v80c-13.36-13.36-21.68-13.36-26.72-13.36-8 0-18.64 13.36-26.64 13.36-4.96 0-13.36 0-26.64-13.36z" stroke="#000" stroke-width="2" fill="#b2d6ef"/><use xlink:href="#a" transform="matrix(1,0,0,1,565,996.857326800668) translate(0 14.222222222222223)"/><path d="M700 971.86h80v80c-13.36-13.36-21.68-13.36-26.72-13.36-8 0-18.64 13.36-26.64 13.36-4.96 0-13.36 0-26.64-13.36z" stroke="#000" stroke-width="2" fill="#b2d6ef"/><use xlink:href="#d" transform="matrix(1,0,0,1,705,976.8573268006684) translate(0 14.222222222222223)"/><use xlink:href="#e" transform="matrix(1,0,0,1,705,976.8573268006684) translate(0 35.55555555555556)"/><path d="M720 991.86h80v80c-13.36-13.36-21.68-13.36-26.72-13.36-8 0-18.64 13.36-26.64 13.36-4.96 0-13.36 0-26.64-13.36z" stroke="#000" stroke-width="2" fill="#b2d6ef"/><use xlink:href="#d" transform="matrix(1,0,0,1,725,996.857326800668) translate(0 14.222222222222223)"/><use xlink:href="#e" transform="matrix(1,0,0,1,725,996.857326800668) translate(0 35.55555555555556)"/><path d="M860 971.86h80v80c-13.36-13.36-21.68-13.36-26.72-13.36-8 0-18.64 13.36-26.64 13.36-4.96 0-13.36 0-26.64-13.36z" stroke="#000" stroke-width="2" fill="#b2d6ef"/><use xlink:href="#b" transform="matrix(1,0,0,1,864.9999999999999,976.8573268006684) translate(0 14.222222222222223)"/><use xlink:href="#c" transform="matrix(1,0,0,1,864.9999999999999,976.8573268006684) translate(0 35.55555555555556)"/><path d="M880 991.86h80v80c-13.36-13.36-21.68-13.36-26.72-13.36-8 0-18.64 13.36-26.64 13.36-4.96 0-13.36 0-26.64-13.36z" stroke="#000" stroke-width="2" fill="#b2d6ef"/><use xlink:href="#b" transform="matrix(1,0,0,1,885.0000000000001,996.857326800668) translate(0 14.222222222222223)"/><use xlink:href="#c" transform="matrix(1,0,0,1,885.0000000000001,996.857326800668) translate(0 35.55555555555556)"/><path d="M560 949.86V841.52h-.1V733.2" stroke="#b2b2b2" stroke-width="2" fill="none"/><path d="M561 950.86h-2v-1.03h2zM560.9 732.7v.5h-2v-1.54z" fill="#b2b2b2"/><path d="M580 969.86v-227" stroke="#b2b2b2" stroke-width="2" fill="none"/><path d="M581 970.86h-2v-1.03h2zM581 742.3v.6h-2v-1.45z" fill="#b2b2b2"/><path d="M600 989.86v-239.2" stroke="#b2b2b2" stroke-width="2" fill="none"/><path d="M601 990.86h-2v-1.03h2zM601 750v.7h-2v-1.36z" fill="#b2b2b2"/><path d="M720 949.86v-199.9" stroke="#b2b2b2" stroke-width="2" fill="none"/><path d="M721 950.86h-2v-1.03h2zM721 749.98h-2v-.62l2-.82z" fill="#b2b2b2"/><path d="M740 969.86v-228.1" stroke="#b2b2b2" stroke-width="2" fill="none"/><path d="M741 970.86h-2v-1.03h2zM741 741.8h-2v-.63l2-.82z" fill="#b2b2b2"/><path d="M760 989.86v-256.3" stroke="#b2b2b2" stroke-width="2" fill="none"/><path d="M761 990.86h-2v-1.03h2zM761 733.6h-2v-.62l2-.82z" fill="#b2b2b2"/><path d="M880 949.86V733.42" stroke="#b2b2b2" stroke-width="2" fill="none"/><path d="M881 950.86h-2v-1.03h2zM879.75 732.33l1.25.46v.64h-2v-1.35z" fill="#b2b2b2"/><path d="M900 969.86V855.6h.14V741.32" stroke="#b2b2b2" stroke-width="2" fill="none"/><path d="M901 970.86h-2v-1.03h2zM900.4 740.44l.74.34v.57h-2v-1.44z" fill="#b2b2b2"/><path d="M920 989.86V750.98" stroke="#b2b2b2" stroke-width="2" fill="none"/><path d="M921 990.86h-2v-1.03h2zM921 750.5v.5h-2v-1.54z" fill="#b2b2b2"/><path d="M580 1011.86h80v80c-13.36-13.36-21.68-13.36-26.72-13.36-8 0-18.64 13.36-26.64 13.36-4.96 0-13.36 0-26.64-13.36z" stroke="#000" stroke-width="2" fill="#83bbe5"/><use xlink:href="#a" transform="matrix(1,0,0,1,585,1016.857326800668) translate(0 14.222222222222223)"/><path d="M900 1011.86h80v80c-13.36-13.36-21.68-13.36-26.72-13.36-8 0-18.64 13.36-26.64 13.36-4.96 0-13.36 0-26.64-13.36z" stroke="#000" stroke-width="2" fill="#83bbe5"/><use xlink:href="#b" transform="matrix(1,0,0,1,905,1016.857326800668) translate(0 14.222222222222223)"/><use xlink:href="#c" transform="matrix(1,0,0,1,905,1016.857326800668) translate(0 35.55555555555556)"/><path d="M740 1011.86h80v80c-13.36-13.36-21.68-13.36-26.72-13.36-8 0-18.64 13.36-26.64 13.36-4.96 0-13.36 0-26.64-13.36z" stroke="#000" stroke-width="2" fill="#83bbe5"/><use xlink:href="#d" transform="matrix(1,0,0,1,745.0000000000001,1016.857326800668) translate(0 14.222222222222223)"/><use xlink:href="#e" transform="matrix(1,0,0,1,745.0000000000001,1016.857326800668) translate(0 35.55555555555556)"/><path d="M600 1031.86h80v80c-13.36-13.36-21.68-13.36-26.72-13.36-8 0-18.64 13.36-26.64 13.36-4.96 0-13.36 0-26.64-13.36z" stroke="#000" stroke-width="2" fill="#83bbe5"/><use xlink:href="#a" transform="matrix(1,0,0,1,605,1036.8573268006676) translate(0 14.222222222222223)"/><path d="M620 1051.86h80v80c-13.36-13.36-21.68-13.36-26.72-13.36-8 0-18.64 13.36-26.64 13.36-4.96 0-13.36 0-26.64-13.36z" stroke="#000" stroke-width="2" fill="#83bbe5"/><use xlink:href="#a" transform="matrix(1,0,0,1,624.9999999999999,1056.8573268006676) translate(0 14.222222222222223)"/><path d="M760 1031.86h80v80c-13.36-13.36-21.68-13.36-26.72-13.36-8 0-18.64 13.36-26.64 13.36-4.96 0-13.36 0-26.64-13.36z" stroke="#000" stroke-width="2" fill="#83bbe5"/><use xlink:href="#d" transform="matrix(1,0,0,1,765,1036.8573268006676) translate(0 14.222222222222223)"/><use xlink:href="#e" transform="matrix(1,0,0,1,765,1036.8573268006676) translate(0 35.55555555555556)"/><path d="M780 1051.86h80v80c-13.36-13.36-21.68-13.36-26.72-13.36-8 0-18.64 13.36-26.64 13.36-4.96 0-13.36 0-26.64-13.36z" stroke="#000" stroke-width="2" fill="#83bbe5"/><use xlink:href="#d" transform="matrix(1,0,0,1,785,1056.8573268006676) translate(0 14.222222222222223)"/><use xlink:href="#e" transform="matrix(1,0,0,1,785,1056.8573268006676) translate(0 35.55555555555556)"/><path d="M920 1031.86h80v80c-13.36-13.36-21.68-13.36-26.72-13.36-8 0-18.64 13.36-26.64 13.36-4.96 0-13.36 0-26.64-13.36z" stroke="#000" stroke-width="2" fill="#83bbe5"/><use xlink:href="#b" transform="matrix(1,0,0,1,925.0000000000001,1036.8573268006676) translate(0 14.222222222222223)"/><use xlink:href="#c" transform="matrix(1,0,0,1,925.0000000000001,1036.8573268006676) translate(0 35.55555555555556)"/><path d="M940 1051.86h80v80c-13.36-13.36-21.68-13.36-26.72-13.36-8 0-18.64 13.36-26.64 13.36-4.96 0-13.36 0-26.64-13.36z" stroke="#000" stroke-width="2" fill="#83bbe5"/><use xlink:href="#b" transform="matrix(1,0,0,1,945,1056.8573268006676) translate(0 14.222222222222223)"/><use xlink:href="#c" transform="matrix(1,0,0,1,945,1056.8573268006676) translate(0 35.55555555555556)"/><path d="M620 1009.86v-196.6" stroke="#666" stroke-width="2" fill="none"/><path d="M621 1010.86h-2v-1.03h2zM621 812.77v.5h-2v-1.55z" fill="#666"/><path d="M640 1029.86v-207" stroke="#666" stroke-width="2" fill="none"/><path d="M641 1030.86h-2v-1.03h2zM641 822.3v.6h-2v-1.45z" fill="#666"/><path d="M660 1049.86v-219.2" stroke="#666" stroke-width="2" fill="none"/><path d="M661 1050.86h-2v-1.03h2zM661 830v.7h-2v-1.36z" fill="#666"/><path d="M780 1009.86V829.95" stroke="#666" stroke-width="2" fill="none"/><path d="M781 1010.86h-2v-1.03h2zM781 829.98h-2v-.62l2-.82z" fill="#666"/><path d="M800 1029.86v-208.1" stroke="#666" stroke-width="2" fill="none"/><path d="M801 1030.86h-2v-1.03h2zM801 821.8h-2v-.63l2-.82z" fill="#666"/><path d="M820 1049.86v-236.3" stroke="#666" stroke-width="2" fill="none"/><path d="M821 1050.86h-2v-1.03h2zM821 813.6h-2v-.62l2-.82z" fill="#666"/><path d="M940 1009.86V813.42" stroke="#666" stroke-width="2" fill="none"/><path d="M941 1010.86h-2v-1.03h2zM939.75 812.33l1.25.46v.64h-2v-1.35z" fill="#666"/><path d="M960 1029.86v-208.6" stroke="#666" stroke-width="2" fill="none"/><path d="M961 1030.86h-2v-1.03h2zM960.4 820.44l.6.27v.6h-2v-1.45z" fill="#666"/><path d="M980 1049.86V830.98" stroke="#666" stroke-width="2" fill="none"/><path d="M981 1050.86h-2v-1.03h2zM981 830.5v.5h-2v-1.54z" fill="#666"/><path d="M1040 380h200v160c-33.4-26.72-54.2-26.72-66.8-26.72-20 0-46.6 26.72-66.6 26.72-12.4 0-33.4 0-66.6-26.72z" stroke="#000" stroke-width="2" fill="#ef8d22"/><use xlink:href="#f" transform="matrix(1,0,0,1,1045,385) translate(0 24.888888888888893)"/><use xlink:href="#g" transform="matrix(1,0,0,1,1045,385) translate(0 62.222222222222236)"/><use xlink:href="#h" transform="matrix(1,0,0,1,1045,385) translate(39.66666666666667 62.222222222222236)"/><path d="M700 240h200v160c-33.4-26.72-54.2-26.72-66.8-26.72-20 0-46.6 26.72-66.6 26.72-12.4 0-33.4 0-66.6-26.72z" stroke="#000" stroke-width="2" fill="#de5f85"/><use xlink:href="#i" transform="matrix(1,0,0,1,705,245) translate(0 24.888888888888893)"/><path d="M700 40h200v160c-33.4-26.72-54.2-26.72-66.8-26.72-20 0-46.6 26.72-66.6 26.72-12.4 0-33.4 0-66.6-26.72z" stroke="#000" stroke-width="2" fill="#834187"/><use xlink:href="#j" transform="matrix(1,0,0,1,705,45.00000000000003) translate(0 24.888888888888893)"/><use xlink:href="#k" transform="matrix(1,0,0,1,705,45.00000000000003) translate(0 62.222222222222236)"/><path d="M800 238v-49.52" stroke="#000" stroke-width="2" fill="none"/><path d="M801 239h-2v-1.03h2zM801 188.5h-2v-.5l2-1.05z"/><path d="M1140 378v-58H902" stroke="#000" stroke-width="2" fill="none"/><path d="M1141 379h-2v-1.03h2zM902.03 321H901v-2h1.03z"/><path d="M640 1071.86h80v80c-13.36-13.36-21.68-13.36-26.72-13.36-8 0-18.64 13.36-26.64 13.36-4.96 0-13.36 0-26.64-13.36z" stroke="#000" stroke-width="2" fill="#0c7cba"/><use xlink:href="#a" transform="matrix(1,0,0,1,645,1076.8573268006676) translate(0 14.222222222222223)"/><path d="M960 1071.86h80v80c-13.36-13.36-21.68-13.36-26.72-13.36-8 0-18.64 13.36-26.64 13.36-4.96 0-13.36 0-26.64-13.36z" stroke="#000" stroke-width="2" fill="#0c7cba"/><use xlink:href="#b" transform="matrix(1,0,0,1,965.0000000000001,1076.8573268006676) translate(0 14.222222222222223)"/><use xlink:href="#c" transform="matrix(1,0,0,1,965.0000000000001,1076.8573268006676) translate(0 35.55555555555556)"/><path d="M800 1071.86h80v80c-13.36-13.36-21.68-13.36-26.72-13.36-8 0-18.64 13.36-26.64 13.36-4.96 0-13.36 0-26.64-13.36z" stroke="#000" stroke-width="2" fill="#0c7cba"/><use xlink:href="#d" transform="matrix(1,0,0,1,805.0000000000001,1076.8573268006676) translate(0 14.222222222222223)"/><use xlink:href="#e" transform="matrix(1,0,0,1,805.0000000000001,1076.8573268006676) translate(0 35.55555555555556)"/><path d="M660 1091.86h80v80c-13.36-13.36-21.68-13.36-26.72-13.36-8 0-18.64 13.36-26.64 13.36-4.96 0-13.36 0-26.64-13.36z" stroke="#000" stroke-width="2" fill="#0c7cba"/><use xlink:href="#a" transform="matrix(1,0,0,1,664.9999999999999,1096.8573268006676) translate(0 14.222222222222223)"/><path d="M680 1111.86h80v80c-13.36-13.36-21.68-13.36-26.72-13.36-8 0-18.64 13.36-26.64 13.36-4.96 0-13.36 0-26.64-13.36z" stroke="#000" stroke-width="2" fill="#0c7cba"/><use xlink:href="#a" transform="matrix(1,0,0,1,685,1116.8573268006676) translate(0 14.222222222222223)"/><path d="M820 1091.86h80v80c-13.36-13.36-21.68-13.36-26.72-13.36-8 0-18.64 13.36-26.64 13.36-4.96 0-13.36 0-26.64-13.36z" stroke="#000" stroke-width="2" fill="#0c7cba"/><use xlink:href="#d" transform="matrix(1,0,0,1,825,1096.8573268006676) translate(0 14.222222222222223)"/><use xlink:href="#e" transform="matrix(1,0,0,1,825,1096.8573268006676) translate(0 35.55555555555556)"/><path d="M840 1111.86h80v80c-13.36-13.36-21.68-13.36-26.72-13.36-8 0-18.64 13.36-26.64 13.36-4.96 0-13.36 0-26.64-13.36z" stroke="#000" stroke-width="2" fill="#0c7cba"/><use xlink:href="#d" transform="matrix(1,0,0,1,845,1116.8573268006676) translate(0 14.222222222222223)"/><use xlink:href="#e" transform="matrix(1,0,0,1,845,1116.8573268006676) translate(0 35.55555555555556)"/><path d="M980 1091.86h80v80c-13.36-13.36-21.68-13.36-26.72-13.36-8 0-18.64 13.36-26.64 13.36-4.96 0-13.36 0-26.64-13.36z" stroke="#000" stroke-width="2" fill="#0c7cba"/><use xlink:href="#b" transform="matrix(1,0,0,1,985,1096.8573268006676) translate(0 14.222222222222223)"/><use xlink:href="#c" transform="matrix(1,0,0,1,985,1096.8573268006676) translate(0 35.55555555555556)"/><path d="M1000 1111.86h80v80c-13.36-13.36-21.68-13.36-26.72-13.36-8 0-18.64 13.36-26.64 13.36-4.96 0-13.36 0-26.64-13.36z" stroke="#000" stroke-width="2" fill="#0c7cba"/><use xlink:href="#b" transform="matrix(1,0,0,1,1005,1116.8573268006676) translate(0 14.222222222222223)"/><use xlink:href="#c" transform="matrix(1,0,0,1,1005,1116.8573268006676) translate(0 35.55555555555556)"/><path d="M1140 528.48V640H942" stroke="#000" stroke-width="2" fill="none"/><path d="M1141 528.5h-2v-.5l2-1.05zM942.03 641H941v-2h1.03z"/><path d="M1140 528.48V720h-138" stroke="#000" stroke-width="2" fill="none"/><path d="M1141 528.5h-2v-.5l2-1.05zM1002.03 721H1001v-2h1.03z"/><path d="M1140 528.48V800h-78" stroke="#000" stroke-width="2" fill="none"/><path d="M1141 528.5h-2v-.5l2-1.05zM1062.03 801H1061v-2h1.03z"/><path d="M540 520h400v240c-66.8-40.08-108.4-40.08-133.6-40.08-40 0-93.2 40.08-133.2 40.08-24.8 0-66.8 0-133.2-40.08z" stroke="#000" stroke-width="2" fill="#b2d6ef"/><use xlink:href="#l" transform="matrix(1,0,0,1,545,525) translate(0 42.66666666666667)"/><path d="M600 600h400v240c-66.8-40.08-108.4-40.08-133.6-40.08-40 0-93.2 40.08-133.2 40.08-24.8 0-66.8 0-133.2-40.08z" stroke="#000" stroke-width="2" fill="#83bbe5"/><use xlink:href="#l" transform="matrix(1,0,0,1,605,605) translate(0 42.66666666666667)"/><path d="M660 680h400v240c-66.8-40.08-108.4-40.08-133.6-40.08-40 0-93.2 40.08-133.2 40.08-24.8 0-66.8 0-133.2-40.08z" stroke="#000" stroke-width="2" fill="#0c7cba"/><use xlink:href="#l" transform="matrix(1,0,0,1,665,684.9999999999999) translate(0 42.66666666666667)"/><path d="M740 398.35V518" stroke="#000" stroke-width="2" fill="none"/><path d="M740.48 397.5l.52.16v.7h-2V397zM741 519h-2v-1.03h2z"/><path d="M800 388.48V598" stroke="#000" stroke-width="2" fill="none"/><path d="M801 388.5h-2v-.5l2-1.05zM801 599h-2v-1.03h2z"/><path d="M860 379.1V678" stroke="#000" stroke-width="2" fill="none"/><path d="M861 378.44v.67h-2v-1.36zM861 679h-2v-1.03h2z"/><path d="M680 1069.86v-176.6" stroke="#000" stroke-width="2" fill="none"/><path d="M681 1070.86h-2v-1.03h2zM681 892.77v.5h-2v-1.55z"/><path d="M700 1089.86v-187" stroke="#000" stroke-width="2" fill="none"/><path d="M701 1090.86h-2v-1.03h2zM701 902.3v.6h-2v-1.45z"/><path d="M720 1109.86v-199.2" stroke="#000" stroke-width="2" fill="none"/><path d="M721 1110.86h-2v-1.03h2zM721 910v.7h-2v-1.36z"/><path d="M840 1069.86V909.95" stroke="#000" stroke-width="2" fill="none"/><path d="M841 1070.86h-2v-1.03h2zM841 909.98h-2v-.62l2-.82z"/><path d="M860 1089.86v-188.1" stroke="#000" stroke-width="2" fill="none"/><path d="M861 1090.86h-2v-1.03h2zM861 901.8h-2v-.63l2-.82z"/><path d="M880 1109.86v-230.8" stroke="#000" stroke-width="2" fill="none"/><path d="M881 1110.86h-2v-1.03h2z"/><path d="M880 879.08v-1.02M1000 1069.86V893.42" stroke="#000" stroke-width="2" fill="none"/><path d="M1001 1070.86h-2v-1.03h2zM999.75 892.33l1.25.46v.64h-2v-1.35z"/><path d="M1020 1089.86v-188.6" stroke="#000" stroke-width="2" fill="none"/><path d="M1021 1090.86h-2v-1.03h2zM1020.4 900.44l.6.27v.6h-2v-1.45z"/><path d="M1040 1109.86V910.98" stroke="#000" stroke-width="2" fill="none"/><path d="M1041 1110.86h-2v-1.03h2zM1041 910.5v.5h-2v-1.54z"/><path d="M440 2v1716M440 2.05V0M440 1717.95v2.05M1320 2v1716M1320 2.05V0M1320 1717.95v2.05" stroke="#ccc" stroke-width="4" fill="none"/><path d="M280 180h80v80c-13.36-13.36-21.68-13.36-26.72-13.36-8 0-18.64 13.36-26.64 13.36-4.96 0-13.36 0-26.64-13.36z" stroke="#000" stroke-width="2" fill="#99d5ca"/><use xlink:href="#m" transform="matrix(1,0,0,1,285,185) translate(0 14.222222222222223)"/><use xlink:href="#n" transform="matrix(1,0,0,1,285,185) translate(0 35.55555555555556)"/><path d="M300 240h80v80c-13.36-13.36-21.68-13.36-26.72-13.36-8 0-18.64 13.36-26.64 13.36-4.96 0-13.36 0-26.64-13.36z" stroke="#000" stroke-width="2" fill="#99d5ca"/><use xlink:href="#m" transform="matrix(1,0,0,1,305,245) translate(0 14.222222222222223)"/><use xlink:href="#n" transform="matrix(1,0,0,1,305,245) translate(0 35.55555555555556)"/><path d="M320 300h80v80c-13.36-13.36-21.68-13.36-26.72-13.36-8 0-18.64 13.36-26.64 13.36-4.96 0-13.36 0-26.64-13.36z" stroke="#000" stroke-width="2" fill="#99d5ca"/><use xlink:href="#m" transform="matrix(1,0,0,1,325,305) translate(0 14.222222222222223)"/><use xlink:href="#n" transform="matrix(1,0,0,1,325,305) translate(0 35.55555555555556)"/><path d="M280 40h120v120c-20.04-20.04-32.52-20.04-40.08-20.04-12 0-27.96 20.04-39.96 20.04-7.44 0-20.04 0-39.96-20.04z" stroke="#000" stroke-width="2" fill="#5abaa7"/><use xlink:href="#m" transform="matrix(1,0,0,1,285,45) translate(0 14.222222222222223)"/><use xlink:href="#o" transform="matrix(1,0,0,1,285,45) translate(0 35.55555555555556)"/><use xlink:href="#p" transform="matrix(1,0,0,1,285,45) translate(47.01234567901235 35.55555555555556)"/><path d="M320 178v-16" stroke="#000" stroke-width="2" fill="none"/><path d="M321 179h-2v-1.03h2zM321 162.03h-2v-1.08l.97.05 1.03-.07z"/><path d="M340 238v-86.16" stroke="#000" stroke-width="2" fill="none"/><path d="M341 239h-2v-1.03h2zM341 151.86h-2v-.4l2-1.26z"/><path d="M360 298V141.96" stroke="#000" stroke-width="2" fill="none"/><path d="M361 299h-2v-1.03h2zM361 140.97V142h-2V141l.95-.06z"/><path d="M280 580h80v80c-13.36-13.36-21.68-13.36-26.72-13.36-8 0-18.64 13.36-26.64 13.36-4.96 0-13.36 0-26.64-13.36z" stroke="#000" stroke-width="2" fill="#99d5ca"/><use xlink:href="#m" transform="matrix(1,0,0,1,285,584.9999999999999) translate(0 14.222222222222223)"/><use xlink:href="#n" transform="matrix(1,0,0,1,285,584.9999999999999) translate(0 35.55555555555556)"/><path d="M300 640h80v80c-13.36-13.36-21.68-13.36-26.72-13.36-8 0-18.64 13.36-26.64 13.36-4.96 0-13.36 0-26.64-13.36z" stroke="#000" stroke-width="2" fill="#99d5ca"/><use xlink:href="#m" transform="matrix(1,0,0,1,305,645) translate(0 14.222222222222223)"/><use xlink:href="#n" transform="matrix(1,0,0,1,305,645) translate(0 35.55555555555556)"/><path d="M320 700h80v80c-13.36-13.36-21.68-13.36-26.72-13.36-8 0-18.64 13.36-26.64 13.36-4.96 0-13.36 0-26.64-13.36z" stroke="#000" stroke-width="2" fill="#99d5ca"/><use xlink:href="#m" transform="matrix(1,0,0,1,325,705) translate(0 14.222222222222223)"/><use xlink:href="#n" transform="matrix(1,0,0,1,325,705) translate(0 35.55555555555556)"/><path d="M280 440h120v120c-20.04-20.04-32.52-20.04-40.08-20.04-12 0-27.96 20.04-39.96 20.04-7.44 0-20.04 0-39.96-20.04z" stroke="#000" stroke-width="2" fill="#5abaa7"/><use xlink:href="#m" transform="matrix(1,0,0,1,285,444.99999999999994) translate(0 14.222222222222223)"/><use xlink:href="#o" transform="matrix(1,0,0,1,285,444.99999999999994) translate(0 35.55555555555556)"/><use xlink:href="#p" transform="matrix(1,0,0,1,285,444.99999999999994) translate(47.01234567901235 35.55555555555556)"/><path d="M340 639" stroke="#000" stroke-width="2" fill="none"/><path/><path/><path d="M299 680" stroke="#000" stroke-width="2" fill="none"/><path/><path/><path d="M360 699" stroke="#000" stroke-width="2" fill="none"/><path/><path/><path d="M340 639" stroke="#000" stroke-width="2" fill="none"/><path/><path/><path d="M319 740" stroke="#000" stroke-width="2" fill="none"/><path/><path/><path d="M320 578v-16" stroke="#000" stroke-width="2" fill="none"/><path d="M321 579h-2v-1.03h2zM321 562.03h-2v-1.08l.97.05 1.03-.07z"/><path d="M340 638v-86.16" stroke="#000" stroke-width="2" fill="none"/><path d="M341 639h-2v-1.03h2zM341 551.86h-2v-.4l2-1.26z"/><path d="M360 698V541.96" stroke="#000" stroke-width="2" fill="none"/><path d="M361 699h-2v-1.03h2zM361 540.97V542h-2V541l.95-.06z"/><path d="M280 980h80v80c-13.36-13.36-21.68-13.36-26.72-13.36-8 0-18.64 13.36-26.64 13.36-4.96 0-13.36 0-26.64-13.36z" stroke="#000" stroke-width="2" fill="#99d5ca"/><use xlink:href="#m" transform="matrix(1,0,0,1,285,985.0000000000001) translate(0 14.222222222222223)"/><use xlink:href="#n" transform="matrix(1,0,0,1,285,985.0000000000001) translate(0 35.55555555555556)"/><path d="M300 1040h80v80c-13.36-13.36-21.68-13.36-26.72-13.36-8 0-18.64 13.36-26.64 13.36-4.96 0-13.36 0-26.64-13.36z" stroke="#000" stroke-width="2" fill="#99d5ca"/><use xlink:href="#m" transform="matrix(1,0,0,1,305,1045) translate(0 14.222222222222223)"/><use xlink:href="#n" transform="matrix(1,0,0,1,305,1045) translate(0 35.55555555555556)"/><path d="M320 1100h80v80c-13.36-13.36-21.68-13.36-26.72-13.36-8 0-18.64 13.36-26.64 13.36-4.96 0-13.36 0-26.64-13.36z" stroke="#000" stroke-width="2" fill="#99d5ca"/><use xlink:href="#m" transform="matrix(1,0,0,1,325,1105) translate(0 14.222222222222223)"/><use xlink:href="#n" transform="matrix(1,0,0,1,325,1105) translate(0 35.55555555555556)"/><path d="M280 840h120v120c-20.04-20.04-32.52-20.04-40.08-20.04-12 0-27.96 20.04-39.96 20.04-7.44 0-20.04 0-39.96-20.04z" stroke="#000" stroke-width="2" fill="#5abaa7"/><use xlink:href="#m" transform="matrix(1,0,0,1,285,845) translate(0 14.222222222222223)"/><use xlink:href="#o" transform="matrix(1,0,0,1,285,845) translate(0 35.55555555555556)"/><use xlink:href="#p" transform="matrix(1,0,0,1,285,845) translate(47.01234567901235 35.55555555555556)"/><path d="M299 1080" stroke="#000" stroke-width="2" fill="none"/><path/><path/><path d="M361 1020" stroke="#000" stroke-width="2" fill="none"/><path/><path/><path d="M319 1140" stroke="#000" stroke-width="2" fill="none"/><path/><path/><path d="M360 1099" stroke="#000" stroke-width="2" fill="none"/><path/><path/><path d="M381 1080" stroke="#000" stroke-width="2" fill="none"/><path/><path/><path d="M361 1020" stroke="#000" stroke-width="2" fill="none"/><path/><path/><path d="M319 1140" stroke="#000" stroke-width="2" fill="none"/><path/><path/><path d="M360 1099" stroke="#000" stroke-width="2" fill="none"/><path/><path/><path d="M360 1099" stroke="#000" stroke-width="2" fill="none"/><path/><path/><path d="M319 1140" stroke="#000" stroke-width="2" fill="none"/><path/><path/><path d="M320 978v-16" stroke="#000" stroke-width="2" fill="none"/><path d="M321 979h-2v-1.03h2zM321 962.03h-2v-1.08l.97.05 1.03-.07z"/><path d="M340 1038v-86.16" stroke="#000" stroke-width="2" fill="none"/><path d="M341 1039h-2v-1.03h2zM341 951.86h-2v-.4l2-1.26z"/><path d="M360 1098V941.96" stroke="#000" stroke-width="2" fill="none"/><path d="M361 1099h-2v-1.03h2zM361 940.97V942h-2V941l.95-.06z"/><path d="M200 2v1716M200 2.05V0M200 1717.95v2.05" stroke="#ccc" stroke-width="4" fill="none"/><path d="M0 40h160v160c-26.72-26.72-43.36-26.72-53.44-26.72-16 0-37.28 26.72-53.28 26.72-9.92 0-26.72 0-53.28-26.72z" stroke="#000" stroke-width="2" fill="#19967d"/><use xlink:href="#q" transform="matrix(1,0,0,1,5,45.00000000000003) translate(0 14.222222222222223)"/><use xlink:href="#r" transform="matrix(1,0,0,1,5,45.00000000000003) translate(83.85185185185185 14.222222222222223)"/><use xlink:href="#s" transform="matrix(1,0,0,1,5,45.00000000000003) translate(0 35.55555555555556)"/><use xlink:href="#t" transform="matrix(1,0,0,1,5,45.00000000000003) translate(46.320987654320994 35.55555555555556)"/><use xlink:href="#u" transform="matrix(1,0,0,1,5,45.00000000000003) translate(0 56.88888888888889)"/><use xlink:href="#v" transform="matrix(1,0,0,1,5,45.00000000000003) translate(95.90123456790127 56.88888888888889)"/><path d="M0 440h160v160c-26.72-26.72-43.36-26.72-53.44-26.72-16 0-37.28 26.72-53.28 26.72-9.92 0-26.72 0-53.28-26.72z" stroke="#000" stroke-width="2" fill="#19967d"/><use xlink:href="#q" transform="matrix(1,0,0,1,5,445) translate(0 14.222222222222223)"/><use xlink:href="#r" transform="matrix(1,0,0,1,5,445) translate(83.85185185185185 14.222222222222223)"/><use xlink:href="#s" transform="matrix(1,0,0,1,5,445) translate(0 35.55555555555556)"/><use xlink:href="#t" transform="matrix(1,0,0,1,5,445) translate(46.320987654320994 35.55555555555556)"/><use xlink:href="#u" transform="matrix(1,0,0,1,5,445) translate(0 56.88888888888889)"/><use xlink:href="#v" transform="matrix(1,0,0,1,5,445) translate(95.90123456790127 56.88888888888889)"/><path d="M0 840h160v160c-26.72-26.72-43.36-26.72-53.44-26.72-16 0-37.28 26.72-53.28 26.72-9.92 0-26.72 0-53.28-26.72z" stroke="#000" stroke-width="2" fill="#19967d"/><use xlink:href="#q" transform="matrix(1,0,0,1,5,845) translate(0 14.222222222222223)"/><use xlink:href="#r" transform="matrix(1,0,0,1,5,845) translate(83.85185185185185 14.222222222222223)"/><use xlink:href="#s" transform="matrix(1,0,0,1,5,845) translate(0 35.55555555555556)"/><use xlink:href="#t" transform="matrix(1,0,0,1,5,845) translate(46.320987654320994 35.55555555555556)"/><use xlink:href="#u" transform="matrix(1,0,0,1,5,845) translate(0 56.88888888888889)"/><use xlink:href="#v" transform="matrix(1,0,0,1,5,845) translate(95.90123456790127 56.88888888888889)"/><path d="M162 120h78v-20h38" stroke="#000" stroke-width="2" fill="none"/><path d="M162.03 121H161v-2h1.03zM279 101h-1.03v-2H279z"/><path d="M162 120h78v100h38" stroke="#000" stroke-width="2" fill="none"/><path d="M162.03 121H161v-2h1.03zM279 221h-1.03v-2H279z"/><path d="M162 120h78v160h58" stroke="#000" stroke-width="2" fill="none"/><path d="M162.03 121H161v-2h1.03zM299 281h-1.03v-2H299z"/><path d="M162 120h78v220h78" stroke="#000" stroke-width="2" fill="none"/><path d="M162.03 121H161v-2h1.03zM319 341h-1.03v-2H319z"/><path d="M162 520h78v-20h38" stroke="#000" stroke-width="2" fill="none"/><path d="M162.03 521H161v-2h1.03zM279 501h-1.03v-2H279z"/><path d="M162 520h78v100h38" stroke="#000" stroke-width="2" fill="none"/><path d="M162.03 521H161v-2h1.03zM279 621h-1.03v-2H279z"/><path d="M162 520h78v160h58" stroke="#000" stroke-width="2" fill="none"/><path d="M162.03 521H161v-2h1.03zM299 681h-1.03v-2H299z"/><path d="M162 520h78v220h78" stroke="#000" stroke-width="2" fill="none"/><path d="M162.03 521H161v-2h1.03zM319 741h-1.03v-2H319z"/><path d="M162 920h78v-20h38" stroke="#000" stroke-width="2" fill="none"/><path d="M162.03 921H161v-2h1.03zM279 901h-1.03v-2H279z"/><path d="M162 920h78v100h38" stroke="#000" stroke-width="2" fill="none"/><path d="M162.03 921H161v-2h1.03zM279 1021h-1.03v-2H279z"/><path d="M162 920h78v160h58" stroke="#000" stroke-width="2" fill="none"/><path d="M162.03 921H161v-2h1.03zM299 1081h-1.03v-2H299z"/><path d="M162 920h78v220h78" stroke="#000" stroke-width="2" fill="none"/><path d="M162.03 921H161v-2h1.03zM319 1141h-1.03v-2H319z"/><path d="M362 220h99.18" stroke="#000" stroke-width="2" fill="none"/><path d="M362.03 221H361v-2h1.03z"/><path d="M479.55 230l-20-10 20-10M479.55 220h-20" stroke="#000" stroke-width="2" fill="#fff"/><path d="M382 280h79.18" stroke="#000" stroke-width="2" fill="none"/><path d="M382.03 281H381v-2h1.03z"/><path d="M479.55 290l-20-10 20-10M479.55 280h-20" stroke="#000" stroke-width="2" fill="#fff"/><path d="M402 340h59.18" stroke="#000" stroke-width="2" fill="none"/><path d="M402.03 341H401v-2h1.03z"/><path d="M479.55 350l-20-10 20-10M479.55 340h-20" stroke="#000" stroke-width="2" fill="#fff"/><path d="M362 620h99.18" stroke="#000" stroke-width="2" fill="none"/><path d="M362.03 621H361v-2h1.03z"/><path d="M479.55 630l-20-10 20-10M479.55 620h-20" stroke="#000" stroke-width="2" fill="#fff"/><path d="M382 680h79.18" stroke="#000" stroke-width="2" fill="none"/><path d="M382.03 681H381v-2h1.03z"/><path d="M479.55 690l-20-10 20-10M479.55 680h-20" stroke="#000" stroke-width="2" fill="#fff"/><path d="M402 740h59.18" stroke="#000" stroke-width="2" fill="none"/><path d="M402.03 741H401v-2h1.03z"/><path d="M479.55 750l-20-10 20-10M479.55 740h-20" stroke="#000" stroke-width="2" fill="#fff"/><path d="M362 1020h99.18" stroke="#000" stroke-width="2" fill="none"/><path d="M362.03 1021H361v-2h1.03z"/><path d="M479.55 1030l-20-10 20-10M479.55 1020h-20" stroke="#000" stroke-width="2" fill="#fff"/><path d="M382 1080h79.18" stroke="#000" stroke-width="2" fill="none"/><path d="M382.03 1081H381v-2h1.03z"/><path d="M479.55 1090l-20-10 20-10M479.55 1080h-20" stroke="#000" stroke-width="2" fill="#fff"/><path d="M402 1140h59.18" stroke="#000" stroke-width="2" fill="none"/><path d="M402.03 1141H401v-2h1.03z"/><path d="M479.55 1150l-20-10 20-10M479.55 1140h-20" stroke="#000" stroke-width="2" fill="#fff"/><path d="M1360 40h120v120c-20.04-20.04-32.52-20.04-40.08-20.04-12 0-27.96 20.04-39.96 20.04-7.44 0-20.04 0-39.96-20.04z" stroke="#000" stroke-width="2" fill="#7ab648"/><use xlink:href="#w" transform="matrix(1,0,0,1,1365,45.00000000000003) translate(0 14.222222222222223)"/><path d="M1380 80h120v120c-20.04-20.04-32.52-20.04-40.08-20.04-12 0-27.96 20.04-39.96 20.04-7.44 0-20.04 0-39.96-20.04z" stroke="#000" stroke-width="2" fill="#7ab648"/><use xlink:href="#w" transform="matrix(1,0,0,1,1385,85) translate(0 14.222222222222223)"/><path d="M1400 120h120v120c-20.04-20.04-32.52-20.04-40.08-20.04-12 0-27.96 20.04-39.96 20.04-7.44 0-20.04 0-39.96-20.04z" stroke="#000" stroke-width="2" fill="#7ab648"/><use xlink:href="#w" transform="matrix(1,0,0,1,1405,125) translate(0 14.222222222222223)"/><path d="M1360 260h120v120c-20.04-20.04-32.52-20.04-40.08-20.04-12 0-27.96 20.04-39.96 20.04-7.44 0-20.04 0-39.96-20.04z" stroke="#000" stroke-width="2" fill="#a3d977"/><use xlink:href="#x" transform="matrix(1,0,0,1,1365,265) translate(0 14.222222222222223)"/><path d="M1380 300h120v120c-20.04-20.04-32.52-20.04-40.08-20.04-12 0-27.96 20.04-39.96 20.04-7.44 0-20.04 0-39.96-20.04z" stroke="#000" stroke-width="2" fill="#a3d977"/><use xlink:href="#x" transform="matrix(1,0,0,1,1385,305) translate(0 14.222222222222223)"/><path d="M1400 340h120v120c-20.04-20.04-32.52-20.04-40.08-20.04-12 0-27.96 20.04-39.96 20.04-7.44 0-20.04 0-39.96-20.04z" stroke="#000" stroke-width="2" fill="#a3d977"/><use xlink:href="#x" transform="matrix(1,0,0,1,1405,345) translate(0 14.222222222222223)"/><path d="M1360 480h120v120c-20.04-20.04-32.52-20.04-40.08-20.04-12 0-27.96 20.04-39.96 20.04-7.44 0-20.04 0-39.96-20.04z" stroke="#000" stroke-width="2" fill="#c7e8ac"/><use xlink:href="#y" transform="matrix(1,0,0,1,1365,485) translate(0 14.222222222222223)"/><path d="M1380 520h120v120c-20.04-20.04-32.52-20.04-40.08-20.04-12 0-27.96 20.04-39.96 20.04-7.44 0-20.04 0-39.96-20.04z" stroke="#000" stroke-width="2" fill="#c7e8ac"/><use xlink:href="#y" transform="matrix(1,0,0,1,1385,525) translate(0 14.222222222222223)"/><path d="M1400 560h120v120c-20.04-20.04-32.52-20.04-40.08-20.04-12 0-27.96 20.04-39.96 20.04-7.44 0-20.04 0-39.96-20.04z" stroke="#000" stroke-width="2" fill="#c7e8ac"/><use xlink:href="#y" transform="matrix(1,0,0,1,1405,565) translate(0 14.222222222222223)"/><path d="M1360 700h120v120c-20.04-20.04-32.52-20.04-40.08-20.04-12 0-27.96 20.04-39.96 20.04-7.44 0-20.04 0-39.96-20.04z" stroke="#000" stroke-width="2" fill="#ffeca9"/><use xlink:href="#z" transform="matrix(1,0,0,1,1365,705) translate(0 14.222222222222223)"/><path d="M1380 740h120v120c-20.04-20.04-32.52-20.04-40.08-20.04-12 0-27.96 20.04-39.96 20.04-7.44 0-20.04 0-39.96-20.04z" stroke="#000" stroke-width="2" fill="#ffeca9"/><use xlink:href="#z" transform="matrix(1,0,0,1,1385,745) translate(0 14.222222222222223)"/><path d="M1400 780h120v120c-20.04-20.04-32.52-20.04-40.08-20.04-12 0-27.96 20.04-39.96 20.04-7.44 0-20.04 0-39.96-20.04z" stroke="#000" stroke-width="2" fill="#ffeca9"/><use xlink:href="#z" transform="matrix(1,0,0,1,1405,785) translate(0 14.222222222222223)"/><path d="M1358 100h-59.18" stroke="#000" stroke-width="2" fill="none"/><path d="M1359 101h-1.03v-2h1.03z"/><path d="M1280.45 90l20 10-20 10M1280.45 100h20" stroke="#000" stroke-width="2" fill="#fff"/><path d="M1378 140h-79.18" stroke="#000" stroke-width="2" fill="none"/><path d="M1379 141h-1.03v-2h1.03z"/><path d="M1280.45 130l20 10-20 10M1280.45 140h20" stroke="#000" stroke-width="2" fill="#fff"/><path d="M1398 180h-99.18" stroke="#000" stroke-width="2" fill="none"/><path d="M1399 181h-1.03v-2h1.03z"/><path d="M1280.45 170l20 10-20 10M1280.45 180h20" stroke="#000" stroke-width="2" fill="#fff"/><path d="M1358 320h-59.18" stroke="#000" stroke-width="2" fill="none"/><path d="M1359 321h-1.03v-2h1.03z"/><path d="M1280.45 310l20 10-20 10M1280.45 320h20" stroke="#000" stroke-width="2" fill="#fff"/><path d="M1378 360h-79.18" stroke="#000" stroke-width="2" fill="none"/><path d="M1379 361h-1.03v-2h1.03z"/><path d="M1280.45 350l20 10-20 10M1280.45 360h20" stroke="#000" stroke-width="2" fill="#fff"/><path d="M1398 400h-99.18" stroke="#000" stroke-width="2" fill="none"/><path d="M1399 401h-1.03v-2h1.03z"/><path d="M1280.45 390l20 10-20 10M1280.45 400h20" stroke="#000" stroke-width="2" fill="#fff"/><path d="M1358 540h-59.18" stroke="#000" stroke-width="2" fill="none"/><path d="M1359 541h-1.03v-2h1.03z"/><path d="M1280.45 530l20 10-20 10M1280.45 540h20" stroke="#000" stroke-width="2" fill="#fff"/><path d="M1378 580h-79.18" stroke="#000" stroke-width="2" fill="none"/><path d="M1379 581h-1.03v-2h1.03z"/><path d="M1280.45 570l20 10-20 10M1280.45 580h20" stroke="#000" stroke-width="2" fill="#fff"/><path d="M1398 620h-99.18" stroke="#000" stroke-width="2" fill="none"/><path d="M1399 621h-1.03v-2h1.03z"/><path d="M1280.45 610l20 10-20 10M1280.45 620h20" stroke="#000" stroke-width="2" fill="#fff"/><path d="M1358 760h-59.18" stroke="#000" stroke-width="2" fill="none"/><path d="M1359 761h-1.03v-2h1.03z"/><path d="M1280.45 750l20 10-20 10M1280.45 760h20" stroke="#000" stroke-width="2" fill="#fff"/><path d="M1378 800h-79.18" stroke="#000" stroke-width="2" fill="none"/><path d="M1379 801h-1.03v-2h1.03z"/><path d="M1280.45 790l20 10-20 10M1280.45 800h20" stroke="#000" stroke-width="2" fill="#fff"/><path d="M1398 840h-99.18" stroke="#000" stroke-width="2" fill="none"/><path d="M1399 841h-1.03v-2h1.03z"/><path d="M1280.45 830l20 10-20 10M1280.45 840h20" stroke="#000" stroke-width="2" fill="#fff"/><path d="M1360 920h120v120c-20.04-20.04-32.52-20.04-40.08-20.04-12 0-27.96 20.04-39.96 20.04-7.44 0-20.04 0-39.96-20.04z" stroke="#000" stroke-width="2" fill="#ffdf71"/><use xlink:href="#A" transform="matrix(1,0,0,1,1365,925) translate(0 14.222222222222223)"/><path d="M1380 960h120v120c-20.04-20.04-32.52-20.04-40.08-20.04-12 0-27.96 20.04-39.96 20.04-7.44 0-20.04 0-39.96-20.04z" stroke="#000" stroke-width="2" fill="#ffdf71"/><use xlink:href="#A" transform="matrix(1,0,0,1,1385,965) translate(0 14.222222222222223)"/><path d="M1400 1000h120v120c-20.04-20.04-32.52-20.04-40.08-20.04-12 0-27.96 20.04-39.96 20.04-7.44 0-20.04 0-39.96-20.04z" stroke="#000" stroke-width="2" fill="#ffdf71"/><use xlink:href="#A" transform="matrix(1,0,0,1,1405,1005) translate(0 14.222222222222223)"/><path d="M1358 980h-59.18" stroke="#000" stroke-width="2" fill="none"/><path d="M1359 981h-1.03v-2h1.03z"/><path d="M1280.45 970l20 10-20 10M1280.45 980h20" stroke="#000" stroke-width="2" fill="#fff"/><path d="M1378 1020h-79.18" stroke="#000" stroke-width="2" fill="none"/><path d="M1379 1021h-1.03v-2h1.03z"/><path d="M1280.45 1010l20 10-20 10M1280.45 1020h20" stroke="#000" stroke-width="2" fill="#fff"/><path d="M1398 1060h-99.18" stroke="#000" stroke-width="2" fill="none"/><path d="M1399 1061h-1.03v-2h1.03z"/><path d="M1280.45 1050l20 10-20 10M1280.45 1060h20" stroke="#000" stroke-width="2" fill="#fff"/><path d="M1558 1360H2M1557.95 1360h2.05M2.05 1360H0" stroke="#ccc" stroke-width="4" fill="none"/><path d="M520 1400h120v120c-20.04-20.04-32.52-20.04-40.08-20.04-12 0-27.96 20.04-39.96 20.04-7.44 0-20.04 0-39.96-20.04z" stroke="#000" stroke-width="2" fill="#ffbbb1"/><use xlink:href="#B" transform="matrix(1,0,0,1,525,1405) translate(0 14.222222222222223)"/><use xlink:href="#C" transform="matrix(1,0,0,1,525,1405) translate(43.35802469135803 14.222222222222223)"/><path d="M560 1480h120v120c-20.04-20.04-32.52-20.04-40.08-20.04-12 0-27.96 20.04-39.96 20.04-7.44 0-20.04 0-39.96-20.04z" stroke="#000" stroke-width="2" fill="#ffbbb1"/><use xlink:href="#B" transform="matrix(1,0,0,1,565,1485) translate(0 14.222222222222223)"/><use xlink:href="#C" transform="matrix(1,0,0,1,565,1485) translate(43.35802469135803 14.222222222222223)"/><path d="M600 1560h120v120c-20.04-20.04-32.52-20.04-40.08-20.04-12 0-27.96 20.04-39.96 20.04-7.44 0-20.04 0-39.96-20.04z" stroke="#000" stroke-width="2" fill="#ffbbb1"/><use xlink:href="#B" transform="matrix(1,0,0,1,605,1565) translate(0 14.222222222222223)"/><use xlink:href="#C" transform="matrix(1,0,0,1,605,1565) translate(43.35802469135803 14.222222222222223)"/><path d="M580 1398v-59.18" stroke="#000" stroke-width="2" fill="none"/><path d="M581 1399h-2v-1.03h2z"/><path d="M590 1320.45l-10 20-10-20M580 1320.45v20" stroke="#000" stroke-width="2" fill="#fff"/><path d="M620 1478v-139.18" stroke="#000" stroke-width="2" fill="none"/><path d="M621 1479h-2v-1.03h2z"/><path d="M630 1320.45l-10 20-10-20M620 1320.45v20" stroke="#000" stroke-width="2" fill="#fff"/><path d="M660 1558v-219.18" stroke="#000" stroke-width="2" fill="none"/><path d="M661 1559h-2v-1.03h2z"/><path d="M670 1320.45l-10 20-10-20M660 1320.45v20" stroke="#000" stroke-width="2" fill="#fff"/><path d="M780 1400h120v120c-20.04-20.04-32.52-20.04-40.08-20.04-12 0-27.96 20.04-39.96 20.04-7.44 0-20.04 0-39.96-20.04z" stroke="#000" stroke-width="2" fill="#ccc"/><g><use xlink:href="#D" transform="matrix(1,0,0,1,784.9999999999999,1405) translate(0 14.222222222222223)"/><use xlink:href="#E" transform="matrix(1,0,0,1,784.9999999999999,1405) translate(0 35.55555555555556)"/></g><path d="M820 1480h120v120c-20.04-20.04-32.52-20.04-40.08-20.04-12 0-27.96 20.04-39.96 20.04-7.44 0-20.04 0-39.96-20.04z" stroke="#000" stroke-width="2" fill="#ccc"/><g><use xlink:href="#D" transform="matrix(1,0,0,1,825,1485) translate(0 14.222222222222223)"/><use xlink:href="#E" transform="matrix(1,0,0,1,825,1485) translate(0 35.55555555555556)"/></g><path d="M860 1560h120v120c-20.04-20.04-32.52-20.04-40.08-20.04-12 0-27.96 20.04-39.96 20.04-7.44 0-20.04 0-39.96-20.04z" stroke="#000" stroke-width="2" fill="#ccc"/><g><use xlink:href="#D" transform="matrix(1,0,0,1,865,1565) translate(0 14.222222222222223)"/><use xlink:href="#E" transform="matrix(1,0,0,1,865,1565) translate(0 35.55555555555556)"/></g><path d="M840 1398v-59.18" stroke="#000" stroke-width="2" fill="none"/><path d="M841 1399h-2v-1.03h2z"/><path d="M850 1320.45l-10 20-10-20M840 1320.45v20" stroke="#000" stroke-width="2" fill="#fff"/><path d="M880 1478v-139.18" stroke="#000" stroke-width="2" fill="none"/><path d="M881 1479h-2v-1.03h2z"/><path d="M890 1320.45l-10 20-10-20M880 1320.45v20" stroke="#000" stroke-width="2" fill="#fff"/><path d="M920 1558v-219.18" stroke="#000" stroke-width="2" fill="none"/><path d="M921 1559h-2v-1.03h2z"/><path d="M930 1320.45l-10 20-10-20M920 1320.45v20" stroke="#000" stroke-width="2" fill="#fff"/><path d="M1040 1400h120v120c-20.04-20.04-32.52-20.04-40.08-20.04-12 0-27.96 20.04-39.96 20.04-7.44 0-20.04 0-39.96-20.04z" stroke="#000" stroke-width="2" fill="#666"/><g><use xlink:href="#F" transform="matrix(1,0,0,1,1045,1405) translate(0 14.222222222222223)"/><use xlink:href="#G" transform="matrix(1,0,0,1,1045,1405) translate(0 35.55555555555556)"/><use xlink:href="#H" transform="matrix(1,0,0,1,1045,1405) translate(0 56.88888888888889)"/></g><path d="M1080 1480h120v120c-20.04-20.04-32.52-20.04-40.08-20.04-12 0-27.96 20.04-39.96 20.04-7.44 0-20.04 0-39.96-20.04z" stroke="#000" stroke-width="2" fill="#666"/><g><use xlink:href="#F" transform="matrix(1,0,0,1,1085,1485) translate(0 14.222222222222223)"/><use xlink:href="#G" transform="matrix(1,0,0,1,1085,1485) translate(0 35.55555555555556)"/><use xlink:href="#H" transform="matrix(1,0,0,1,1085,1485) translate(0 56.88888888888889)"/></g><path d="M1120 1560h120v120c-20.04-20.04-32.52-20.04-40.08-20.04-12 0-27.96 20.04-39.96 20.04-7.44 0-20.04 0-39.96-20.04z" stroke="#000" stroke-width="2" fill="#666"/><g><use xlink:href="#F" transform="matrix(1,0,0,1,1125,1565) translate(0 14.222222222222223)"/><use xlink:href="#G" transform="matrix(1,0,0,1,1125,1565) translate(0 35.55555555555556)"/><use xlink:href="#H" transform="matrix(1,0,0,1,1125,1565) translate(0 56.88888888888889)"/></g><path d="M1100 1398v-59.18" stroke="#000" stroke-width="2" fill="none"/><path d="M1101 1399h-2v-1.03h2z"/><path d="M1110 1320.45l-10 20-10-20M1100 1320.45v20" stroke="#000" stroke-width="2" fill="#fff"/><path d="M1140 1478v-139.18" stroke="#000" stroke-width="2" fill="none"/><path d="M1141 1479h-2v-1.03h2z"/><path d="M1150 1320.45l-10 20-10-20M1140 1320.45v20" stroke="#000" stroke-width="2" fill="#fff"/><path d="M1180 1558v-219.18" stroke="#000" stroke-width="2" fill="none"/><path d="M1181 1559h-2v-1.03h2z"/><path d="M1190 1320.45l-10 20-10-20M1180 1320.45v20M1360 1140h120v120c-20.04-20.04-32.52-20.04-40.08-20.04-12 0-27.96 20.04-39.96 20.04-7.44 0-20.04 0-39.96-20.04z" stroke="#000" stroke-width="2" fill="#fff"/><g><use xlink:href="#I" transform="matrix(1,0,0,1,1365,1145) translate(0 14.222222222222223)"/></g><path d="M1380 1180h120v120c-20.04-20.04-32.52-20.04-40.08-20.04-12 0-27.96 20.04-39.96 20.04-7.44 0-20.04 0-39.96-20.04z" stroke="#000" stroke-width="2" fill="#fff"/><g><use xlink:href="#I" transform="matrix(1,0,0,1,1385,1185) translate(0 14.222222222222223)"/></g><path d="M1400 1220h120v120c-20.04-20.04-32.52-20.04-40.08-20.04-12 0-27.96 20.04-39.96 20.04-7.44 0-20.04 0-39.96-20.04z" stroke="#000" stroke-width="2" fill="#fff"/><g><use xlink:href="#I" transform="matrix(1,0,0,1,1405,1225) translate(0 14.222222222222223)"/></g><path d="M1358 1200h-59.18" stroke="#000" stroke-width="2" fill="none"/><path d="M1359 1201h-1.03v-2h1.03z"/><path d="M1280.45 1190l20 10-20 10M1280.45 1200h20" stroke="#000" stroke-width="2" fill="#fff"/><path d="M1378 1240h-79.18" stroke="#000" stroke-width="2" fill="none"/><path d="M1379 1241h-1.03v-2h1.03z"/><path d="M1280.45 1230l20 10-20 10M1280.45 1240h20" stroke="#000" stroke-width="2" fill="#fff"/><path d="M1398 1280h-99.18" stroke="#000" stroke-width="2" fill="none"/><path d="M1399 1281h-1.03v-2h1.03z"/><path d="M1280.45 1270l20 10-20 10M1280.45 1280h20" stroke="#000" stroke-width="2" fill="#fff"/><defs><path fill="#fff" d="M76-208v77h127v40H76V0H24v-248h183v40H76" id="J"/><path fill="#fff" d="M25-224v-37h50v37H25zM25 0v-190h50V0H25" id="K"/><path fill="#fff" d="M25 0v-261h50V0H25" id="L"/><path fill="#fff" d="M185-48c-13 30-37 53-82 52C43 2 14-33 14-96s30-98 90-98c62 0 83 45 84 108H66c0 31 8 55 39 56 18 0 30-7 34-22zm-45-69c5-46-57-63-70-21-2 6-4 13-4 21h74" id="M"/><g id="a"><use transform="matrix(0.04938271604938272,0,0,0.04938271604938272,0,0)" xlink:href="#J"/><use transform="matrix(0.04938271604938272,0,0,0.04938271604938272,10.814814814814815,0)" xlink:href="#K"/><use transform="matrix(0.04938271604938272,0,0,0.04938271604938272,15.753086419753087,0)" xlink:href="#L"/><use transform="matrix(0.04938271604938272,0,0,0.04938271604938272,20.69135802469136,0)" xlink:href="#M"/></g><path fill="#fff" d="M136-208V0H84v-208H4v-40h212v40h-80" id="N"/><path fill="#fff" d="M133-34C117-15 103 5 69 4 32 3 11-16 11-54c-1-60 55-63 116-61 1-26-3-47-28-47-18 1-26 9-28 27l-52-2c7-38 36-58 82-57s74 22 75 68l1 82c-1 14 12 18 25 15v27c-30 8-71 5-69-32zm-48 3c29 0 43-24 42-57-32 0-66-3-65 30 0 17 8 27 23 27" id="O"/><path fill="#fff" d="M135-194c52 0 70 43 70 98 0 56-19 99-73 100-30 1-46-15-58-35L72 0H24l1-261h50v104c11-23 29-37 60-37zM114-30c31 0 40-27 40-66 0-37-7-63-39-63s-41 28-41 65c0 36 8 64 40 64" id="P"/><path fill="#fff" d="M85 4C-2 5 27-109 22-190h50c7 57-23 150 33 157 60-5 35-97 40-157h50l1 190h-47c-2-12 1-28-3-38-12 25-28 42-61 42" id="Q"/><path fill="#fff" d="M135-150c-39-12-60 13-60 57V0H25l-1-190h47c2 13-1 29 3 40 6-28 27-53 61-41v41" id="R"/><g id="b"><use transform="matrix(0.04938271604938272,0,0,0.04938271604938272,0,0)" xlink:href="#N"/><use transform="matrix(0.04938271604938272,0,0,0.04938271604938272,9.481481481481481,0)" xlink:href="#O"/><use transform="matrix(0.04938271604938272,0,0,0.04938271604938272,19.358024691358025,0)" xlink:href="#P"/><use transform="matrix(0.04938271604938272,0,0,0.04938271604938272,30.172839506172842,0)" xlink:href="#Q"/><use transform="matrix(0.04938271604938272,0,0,0.04938271604938272,40.98765432098766,0)" xlink:href="#L"/><use transform="matrix(0.04938271604938272,0,0,0.04938271604938272,45.92592592592593,0)" xlink:href="#O"/><use transform="matrix(0.04938271604938272,0,0,0.04938271604938272,55.802469135802475,0)" xlink:href="#R"/></g><path fill="#fff" d="M24-248c120-7 223 5 221 122C244-46 201 0 124 0H24v-248zM76-40c74 7 117-18 117-86 0-67-45-88-117-82v168" id="S"/><path fill="#fff" d="M115-3C79 11 28 4 28-45v-112H4v-33h27l15-45h31v45h36v33H77v99c-1 23 16 31 38 25v30" id="T"/><g id="c"><use transform="matrix(0.04938271604938272,0,0,0.04938271604938272,0,0)" xlink:href="#S"/><use transform="matrix(0.04938271604938272,0,0,0.04938271604938272,12.790123456790125,0)" xlink:href="#O"/><use transform="matrix(0.04938271604938272,0,0,0.04938271604938272,22.66666666666667,0)" xlink:href="#T"/><use transform="matrix(0.04938271604938272,0,0,0.04938271604938272,28.54320987654322,0)" xlink:href="#O"/></g><path fill="#fff" d="M230 0l2-204L168 0h-37L68-204 70 0H24v-248h70l56 185 57-185h69V0h-46" id="U"/><g id="d"><use transform="matrix(0.04938271604938272,0,0,0.04938271604938272,0,0)" xlink:href="#U"/><use transform="matrix(0.04938271604938272,0,0,0.04938271604938272,14.765432098765434,0)" xlink:href="#O"/><use transform="matrix(0.04938271604938272,0,0,0.04938271604938272,24.641975308641978,0)" xlink:href="#T"/><use transform="matrix(0.04938271604938272,0,0,0.04938271604938272,30.518518518518523,0)" xlink:href="#M"/><use transform="matrix(0.04938271604938272,0,0,0.04938271604938272,40.39506172839506,0)" xlink:href="#R"/><use transform="matrix(0.04938271604938272,0,0,0.04938271604938272,47.308641975308646,0)" xlink:href="#K"/><use transform="matrix(0.04938271604938272,0,0,0.04938271604938272,52.24691358024692,0)" xlink:href="#O"/><use transform="matrix(0.04938271604938272,0,0,0.04938271604938272,62.12345679012346,0)" xlink:href="#L"/></g><path fill="#fff" d="M24-248c93 1 206-16 204 79-1 75-69 88-152 82V0H24v-248zm52 121c47 0 100 7 100-41 0-47-54-39-100-39v80" id="V"/><path fill="#fff" d="M110-194c64 0 96 36 96 99 0 64-35 99-97 99-61 0-95-36-95-99 0-62 34-99 96-99zm-1 164c35 0 45-28 45-65 0-40-10-65-43-65-34 0-45 26-45 65 0 36 10 65 43 65" id="W"/><path fill="#fff" d="M135-194c53 0 70 44 70 98 0 56-19 98-73 100-31 1-45-17-59-34 3 33 2 69 2 105H25l-1-265h48c2 10 0 23 3 31 11-24 29-35 60-35zM114-30c33 0 39-31 40-66 0-38-9-64-40-64-56 0-55 130 0 130" id="X"/><path fill="#fff" d="M123 10C108 53 80 86 19 72V37c35 8 53-11 59-39L3-190h52l48 148c12-52 28-100 44-148h51" id="Y"/><g id="e"><use transform="matrix(0.04938271604938272,0,0,0.04938271604938272,0,0)" xlink:href="#V"/><use transform="matrix(0.04938271604938272,0,0,0.04938271604938272,11.851851851851853,0)" xlink:href="#R"/><use transform="matrix(0.04938271604938272,0,0,0.04938271604938272,18.765432098765434,0)" xlink:href="#W"/><use transform="matrix(0.04938271604938272,0,0,0.04938271604938272,29.58024691358025,0)" xlink:href="#X"/><use transform="matrix(0.04938271604938272,0,0,0.04938271604938272,40.39506172839506,0)" xlink:href="#M"/><use transform="matrix(0.04938271604938272,0,0,0.04938271604938272,50.27160493827161,0)" xlink:href="#R"/><use transform="matrix(0.04938271604938272,0,0,0.04938271604938272,57.18518518518519,0)" xlink:href="#T"/><use transform="matrix(0.04938271604938272,0,0,0.04938271604938272,63.061728395061735,0)" xlink:href="#Y"/></g><path fill="#fff" d="M24 0v-248h52V0H24" id="Z"/><path fill="#fff" d="M135-194c87-1 58 113 63 194h-50c-7-57 23-157-34-157-59 0-34 97-39 157H25l-1-190h47c2 12-1 28 3 38 12-26 28-41 61-42" id="aa"/><path fill="#fff" d="M137-138c1-29-70-34-71-4 15 46 118 7 119 86 1 83-164 76-172 9l43-7c4 19 20 25 44 25 33 8 57-30 24-41C81-84 22-81 20-136c-2-80 154-74 161-7" id="ab"/><path fill="#fff" d="M220-157c-53 9-28 100-34 157h-49v-107c1-27-5-49-29-50C55-147 81-57 75 0H25l-1-190h47c2 12-1 28 3 38 10-53 101-56 108 0 13-22 24-43 59-42 82 1 51 116 57 194h-49v-107c-1-25-5-48-29-50" id="ac"/><g id="f"><use transform="matrix(0.08641975308641976,0,0,0.08641975308641976,0,0)" xlink:href="#Z"/><use transform="matrix(0.08641975308641976,0,0,0.08641975308641976,8.641975308641976,0)" xlink:href="#aa"/><use transform="matrix(0.08641975308641976,0,0,0.08641975308641976,27.567901234567906,0)" xlink:href="#ab"/><use transform="matrix(0.08641975308641976,0,0,0.08641975308641976,44.85185185185187,0)" xlink:href="#T"/><use transform="matrix(0.08641975308641976,0,0,0.08641975308641976,55.13580246913581,0)" xlink:href="#R"/><use transform="matrix(0.08641975308641976,0,0,0.08641975308641976,67.23456790123458,0)" xlink:href="#Q"/><use transform="matrix(0.08641975308641976,0,0,0.08641975308641976,86.16049382716051,0)" xlink:href="#ac"/><use transform="matrix(0.08641975308641976,0,0,0.08641975308641976,113.81481481481485,0)" xlink:href="#M"/><use transform="matrix(0.08641975308641976,0,0,0.08641975308641976,131.0987654320988,0)" xlink:href="#aa"/><use transform="matrix(0.08641975308641976,0,0,0.08641975308641976,150.0246913580247,0)" xlink:href="#T"/></g><g id="g"><use transform="matrix(0.08641975308641976,0,0,0.08641975308641976,0,0)" xlink:href="#W"/><use transform="matrix(0.08641975308641976,0,0,0.08641975308641976,18.925925925925927,0)" xlink:href="#R"/></g><path fill="#fff" d="M169-182c-1-43-94-46-97-3 18 66 151 10 154 114 3 95-165 93-204 36-6-8-10-19-12-30l50-8c3 46 112 56 116 5-17-69-150-10-154-114-4-87 153-88 188-35 5 8 8 18 10 28" id="ad"/><path fill="#fff" d="M121-226c-27-7-43 5-38 36h38v33H83V0H34v-157H6v-33h28c-9-59 32-81 87-68v32" id="ae"/><path fill="#fff" d="M231 0h-52l-39-155L100 0H48L-1-190h46L77-45c9-52 24-97 36-145h53l37 145 32-145h46" id="af"/><g id="h"><use transform="matrix(0.08641975308641976,0,0,0.08641975308641976,0,0)" xlink:href="#ad"/><use transform="matrix(0.08641975308641976,0,0,0.08641975308641976,20.740740740740744,0)" xlink:href="#W"/><use transform="matrix(0.08641975308641976,0,0,0.08641975308641976,39.66666666666667,0)" xlink:href="#ae"/><use transform="matrix(0.08641975308641976,0,0,0.08641975308641976,49.95061728395062,0)" xlink:href="#T"/><use transform="matrix(0.08641975308641976,0,0,0.08641975308641976,60.23456790123458,0)" xlink:href="#af"/><use transform="matrix(0.08641975308641976,0,0,0.08641975308641976,84.4320987654321,0)" xlink:href="#O"/><use transform="matrix(0.08641975308641976,0,0,0.08641975308641976,101.71604938271606,0)" xlink:href="#R"/><use transform="matrix(0.08641975308641976,0,0,0.08641975308641976,113.81481481481481,0)" xlink:href="#M"/></g><g id="i"><use transform="matrix(0.08641975308641976,0,0,0.08641975308641976,0,0)" xlink:href="#U"/><use transform="matrix(0.08641975308641976,0,0,0.08641975308641976,25.83950617283951,0)" xlink:href="#O"/><use transform="matrix(0.08641975308641976,0,0,0.08641975308641976,43.12345679012346,0)" xlink:href="#T"/><use transform="matrix(0.08641975308641976,0,0,0.08641975308641976,53.40740740740741,0)" xlink:href="#M"/><use transform="matrix(0.08641975308641976,0,0,0.08641975308641976,70.69135802469137,0)" xlink:href="#R"/><use transform="matrix(0.08641975308641976,0,0,0.08641975308641976,82.79012345679013,0)" xlink:href="#K"/><use transform="matrix(0.08641975308641976,0,0,0.08641975308641976,91.4320987654321,0)" xlink:href="#O"/><use transform="matrix(0.08641975308641976,0,0,0.08641975308641976,108.71604938271604,0)" xlink:href="#L"/></g><path fill="#fff" d="M190-63c-7 42-38 67-86 67-59 0-84-38-90-98-12-110 154-137 174-36l-49 2c-2-19-15-32-35-32-30 0-35 28-38 64-6 74 65 87 74 30" id="ag"/><path fill="#fff" d="M195-6C206 82 75 100 31 46c-4-6-6-13-8-21l49-6c3 16 16 24 34 25 40 0 42-37 40-79-11 22-30 35-61 35-53 0-70-43-70-97 0-56 18-96 73-97 30 0 46 14 59 34l2-30h47zm-90-29c32 0 41-27 41-63 0-35-9-62-40-62-32 0-39 29-40 63 0 36 9 62 39 62" id="ah"/><g id="j"><use transform="matrix(0.08641975308641976,0,0,0.08641975308641976,0,0)" xlink:href="#V"/><use transform="matrix(0.08641975308641976,0,0,0.08641975308641976,20.740740740740744,0)" xlink:href="#R"/><use transform="matrix(0.08641975308641976,0,0,0.08641975308641976,32.839506172839506,0)" xlink:href="#W"/><use transform="matrix(0.08641975308641976,0,0,0.08641975308641976,51.76543209876543,0)" xlink:href="#ag"/><use transform="matrix(0.08641975308641976,0,0,0.08641975308641976,69.04938271604938,0)" xlink:href="#M"/><use transform="matrix(0.08641975308641976,0,0,0.08641975308641976,86.33333333333333,0)" xlink:href="#ab"/><use transform="matrix(0.08641975308641976,0,0,0.08641975308641976,103.61728395061728,0)" xlink:href="#ab"/><use transform="matrix(0.08641975308641976,0,0,0.08641975308641976,120.90123456790123,0)" xlink:href="#K"/><use transform="matrix(0.08641975308641976,0,0,0.08641975308641976,129.54320987654322,0)" xlink:href="#aa"/><use transform="matrix(0.08641975308641976,0,0,0.08641975308641976,148.46913580246914,0)" xlink:href="#ah"/></g><path fill="#fff" d="M186 0v-106H76V0H24v-248h52v99h110v-99h50V0h-50" id="ai"/><g id="k"><use transform="matrix(0.08641975308641976,0,0,0.08641975308641976,0,0)" xlink:href="#ai"/><use transform="matrix(0.08641975308641976,0,0,0.08641975308641976,22.38271604938272,0)" xlink:href="#K"/><use transform="matrix(0.08641975308641976,0,0,0.08641975308641976,31.024691358024693,0)" xlink:href="#ab"/><use transform="matrix(0.08641975308641976,0,0,0.08641975308641976,48.308641975308646,0)" xlink:href="#T"/><use transform="matrix(0.08641975308641976,0,0,0.08641975308641976,58.592592592592595,0)" xlink:href="#W"/><use transform="matrix(0.08641975308641976,0,0,0.08641975308641976,77.51851851851852,0)" xlink:href="#R"/><use transform="matrix(0.08641975308641976,0,0,0.08641975308641976,89.61728395061729,0)" xlink:href="#Y"/></g><g id="l"><use transform="matrix(0.14814814814814817,0,0,0.14814814814814817,0,0)" xlink:href="#S"/><use transform="matrix(0.14814814814814817,0,0,0.14814814814814817,38.370370370370374,0)" xlink:href="#O"/><use transform="matrix(0.14814814814814817,0,0,0.14814814814814817,68,0)" xlink:href="#T"/><use transform="matrix(0.14814814814814817,0,0,0.14814814814814817,85.62962962962965,0)" xlink:href="#O"/><use transform="matrix(0.14814814814814817,0,0,0.14814814814814817,115.25925925925928,0)" xlink:href="#ab"/><use transform="matrix(0.14814814814814817,0,0,0.14814814814814817,144.8888888888889,0)" xlink:href="#M"/><use transform="matrix(0.14814814814814817,0,0,0.14814814814814817,174.51851851851853,0)" xlink:href="#T"/></g><path d="M24-248c120-7 223 5 221 122C244-46 201 0 124 0H24v-248zM76-40c74 7 117-18 117-86 0-67-45-88-117-82v168" id="aj"/><path d="M185-48c-13 30-37 53-82 52C43 2 14-33 14-96s30-98 90-98c62 0 83 45 84 108H66c0 31 8 55 39 56 18 0 30-7 34-22zm-45-69c5-46-57-63-70-21-2 6-4 13-4 21h74" id="ak"/><path d="M121-226c-27-7-43 5-38 36h38v33H83V0H34v-157H6v-33h28c-9-59 32-81 87-68v32" id="al"/><path d="M25-224v-37h50v37H25zM25 0v-190h50V0H25" id="am"/><path d="M135-194c87-1 58 113 63 194h-50c-7-57 23-157-34-157-59 0-34 97-39 157H25l-1-190h47c2 12-1 28 3 38 12-26 28-41 61-42" id="an"/><path d="M88-194c31-1 46 15 58 34l-1-101h50l1 261h-48c-2-10 0-23-3-31C134-8 116 4 84 4 32 4 16-41 15-95c0-56 19-97 73-99zm17 164c33 0 40-30 41-66 1-37-9-64-41-64s-38 30-39 65c0 43 13 65 39 65" id="ao"/><g id="m"><use transform="matrix(0.04938271604938272,0,0,0.04938271604938272,0,0)" xlink:href="#aj"/><use transform="matrix(0.04938271604938272,0,0,0.04938271604938272,12.790123456790125,0)" xlink:href="#ak"/><use transform="matrix(0.04938271604938272,0,0,0.04938271604938272,22.66666666666667,0)" xlink:href="#al"/><use transform="matrix(0.04938271604938272,0,0,0.04938271604938272,28.54320987654322,0)" xlink:href="#am"/><use transform="matrix(0.04938271604938272,0,0,0.04938271604938272,33.48148148148149,0)" xlink:href="#an"/><use transform="matrix(0.04938271604938272,0,0,0.04938271604938272,44.296296296296305,0)" xlink:href="#ak"/><use transform="matrix(0.04938271604938272,0,0,0.04938271604938272,54.17283950617284,0)" xlink:href="#ao"/></g><path d="M136-208V0H84v-208H4v-40h212v40h-80" id="ap"/><path d="M135-150c-39-12-60 13-60 57V0H25l-1-190h47c2 13-1 29 3 40 6-28 27-53 61-41v41" id="aq"/><path d="M220-157c-53 9-28 100-34 157h-49v-107c1-27-5-49-29-50C55-147 81-57 75 0H25l-1-190h47c2 12-1 28 3 38 10-53 101-56 108 0 13-22 24-43 59-42 82 1 51 116 57 194h-49v-107c-1-25-5-48-29-50" id="ar"/><g id="n"><use transform="matrix(0.04938271604938272,0,0,0.04938271604938272,0,0)" xlink:href="#ap"/><use transform="matrix(0.04938271604938272,0,0,0.04938271604938272,9.481481481481481,0)" xlink:href="#ak"/><use transform="matrix(0.04938271604938272,0,0,0.04938271604938272,19.358024691358025,0)" xlink:href="#aq"/><use transform="matrix(0.04938271604938272,0,0,0.04938271604938272,26.271604938271608,0)" xlink:href="#ar"/></g><g id="o"><use transform="matrix(0.04938271604938272,0,0,0.04938271604938272,0,0)" xlink:href="#ap"/><use transform="matrix(0.04938271604938272,0,0,0.04938271604938272,9.481481481481481,0)" xlink:href="#ak"/><use transform="matrix(0.04938271604938272,0,0,0.04938271604938272,19.358024691358025,0)" xlink:href="#aq"/><use transform="matrix(0.04938271604938272,0,0,0.04938271604938272,26.271604938271608,0)" xlink:href="#ar"/></g><path d="M169-182c-1-43-94-46-97-3 18 66 151 10 154 114 3 95-165 93-204 36-6-8-10-19-12-30l50-8c3 46 112 56 116 5-17-69-150-10-154-114-4-87 153-88 188-35 5 8 8 18 10 28" id="as"/><path d="M115-3C79 11 28 4 28-45v-112H4v-33h27l15-45h31v45h36v33H77v99c-1 23 16 31 38 25v30" id="at"/><g id="p"><use transform="matrix(0.04938271604938272,0,0,0.04938271604938272,0,0)" xlink:href="#as"/><use transform="matrix(0.04938271604938272,0,0,0.04938271604938272,11.851851851851853,0)" xlink:href="#ak"/><use transform="matrix(0.04938271604938272,0,0,0.04938271604938272,21.7283950617284,0)" xlink:href="#at"/></g><g id="q"><use transform="matrix(0.04938271604938272,0,0,0.04938271604938272,0,0)" xlink:href="#ad"/><use transform="matrix(0.04938271604938272,0,0,0.04938271604938272,11.851851851851853,0)" xlink:href="#M"/><use transform="matrix(0.04938271604938272,0,0,0.04938271604938272,21.7283950617284,0)" xlink:href="#ac"/><use transform="matrix(0.04938271604938272,0,0,0.04938271604938272,37.53086419753087,0)" xlink:href="#O"/><use transform="matrix(0.04938271604938272,0,0,0.04938271604938272,47.40740740740741,0)" xlink:href="#aa"/><use transform="matrix(0.04938271604938272,0,0,0.04938271604938272,58.22222222222223,0)" xlink:href="#T"/><use transform="matrix(0.04938271604938272,0,0,0.04938271604938272,64.09876543209877,0)" xlink:href="#K"/><use transform="matrix(0.04938271604938272,0,0,0.04938271604938272,69.03703703703704,0)" xlink:href="#ag"/></g><path fill="#fff" d="M199 0l-22-63H83L61 0H9l90-248h61L250 0h-51zm-33-102l-36-108c-10 38-24 72-36 108h72" id="au"/><g id="r"><use transform="matrix(0.04938271604938272,0,0,0.04938271604938272,0,0)" xlink:href="#au"/><use transform="matrix(0.04938271604938272,0,0,0.04938271604938272,12.790123456790125,0)" xlink:href="#ab"/><use transform="matrix(0.04938271604938272,0,0,0.04938271604938272,22.66666666666667,0)" xlink:href="#ab"/><use transform="matrix(0.04938271604938272,0,0,0.04938271604938272,32.543209876543216,0)" xlink:href="#M"/><use transform="matrix(0.04938271604938272,0,0,0.04938271604938272,42.41975308641976,0)" xlink:href="#T"/></g><path fill="#fff" d="M67-93c0 74 22 123 53 168H70C40 30 18-18 18-93s22-123 52-168h50c-32 44-53 94-53 168" id="av"/><path fill="#fff" d="M24 0v-54h51V0H24" id="aw"/><path fill="#fff" d="M76-54c-1 42 2 86-19 110H24C36 42 46 24 48 0H25v-54h51" id="ax"/><g id="s"><use transform="matrix(0.04938271604938272,0,0,0.04938271604938272,0,0)" xlink:href="#av"/><use transform="matrix(0.04938271604938272,0,0,0.04938271604938272,5.8765432098765435,0)" xlink:href="#M"/><use transform="matrix(0.04938271604938272,0,0,0.04938271604938272,15.753086419753087,0)" xlink:href="#aw"/><use transform="matrix(0.04938271604938272,0,0,0.04938271604938272,20.69135802469136,0)" xlink:href="#ah"/><use transform="matrix(0.04938271604938272,0,0,0.04938271604938272,31.506172839506174,0)" xlink:href="#aw"/><use transform="matrix(0.04938271604938272,0,0,0.04938271604938272,36.44444444444445,0)" xlink:href="#ax"/></g><path fill="#fff" d="M140-251c80 0 125 45 125 126S219 4 139 4C58 4 15-44 15-125s44-126 125-126zm-1 214c52 0 73-35 73-88 0-50-21-86-72-86-52 0-73 35-73 86s22 88 72 88" id="ay"/><g id="t"><use transform="matrix(0.04938271604938272,0,0,0.04938271604938272,0,0)" xlink:href="#ay"/><use transform="matrix(0.04938271604938272,0,0,0.04938271604938272,13.827160493827162,0)" xlink:href="#aa"/><use transform="matrix(0.04938271604938272,0,0,0.04938271604938272,24.641975308641975,0)" xlink:href="#T"/><use transform="matrix(0.04938271604938272,0,0,0.04938271604938272,30.518518518518523,0)" xlink:href="#W"/><use transform="matrix(0.04938271604938272,0,0,0.04938271604938272,41.333333333333336,0)" xlink:href="#L"/><use transform="matrix(0.04938271604938272,0,0,0.04938271604938272,46.27160493827161,0)" xlink:href="#W"/><use transform="matrix(0.04938271604938272,0,0,0.04938271604938272,57.086419753086425,0)" xlink:href="#ah"/><use transform="matrix(0.04938271604938272,0,0,0.04938271604938272,67.90123456790124,0)" xlink:href="#Y"/><use transform="matrix(0.04938271604938272,0,0,0.04938271604938272,76.44444444444446,0)" xlink:href="#ax"/></g><path fill="#fff" d="M144 0l-44-69L55 0H2l70-98-66-92h53l41 62 40-62h54l-67 91 71 99h-54" id="az"/><g id="u"><use transform="matrix(0.04938271604938272,0,0,0.04938271604938272,0,0)" xlink:href="#N"/><use transform="matrix(0.04938271604938272,0,0,0.04938271604938272,9.481481481481481,0)" xlink:href="#O"/><use transform="matrix(0.04938271604938272,0,0,0.04938271604938272,19.358024691358025,0)" xlink:href="#az"/><use transform="matrix(0.04938271604938272,0,0,0.04938271604938272,29.23456790123457,0)" xlink:href="#W"/><use transform="matrix(0.04938271604938272,0,0,0.04938271604938272,40.04938271604939,0)" xlink:href="#aa"/><use transform="matrix(0.04938271604938272,0,0,0.04938271604938272,50.8641975308642,0)" xlink:href="#W"/><use transform="matrix(0.04938271604938272,0,0,0.04938271604938272,61.67901234567902,0)" xlink:href="#ac"/><use transform="matrix(0.04938271604938272,0,0,0.04938271604938272,77.4814814814815,0)" xlink:href="#Y"/><use transform="matrix(0.04938271604938272,0,0,0.04938271604938272,86.02469135802471,0)" xlink:href="#ax"/></g><path fill="#fff" d="M102-93c0 74-22 123-52 168H0C30 29 54-18 53-93c0-74-22-123-53-168h50c30 45 52 94 52 168" id="aA"/><g id="v"><use transform="matrix(0.04938271604938272,0,0,0.04938271604938272,0,0)" xlink:href="#M"/><use transform="matrix(0.04938271604938272,0,0,0.04938271604938272,9.876543209876544,0)" xlink:href="#T"/><use transform="matrix(0.04938271604938272,0,0,0.04938271604938272,15.753086419753087,0)" xlink:href="#ag"/><use transform="matrix(0.04938271604938272,0,0,0.04938271604938272,25.629629629629633,0)" xlink:href="#aw"/><use transform="matrix(0.04938271604938272,0,0,0.04938271604938272,30.567901234567906,0)" xlink:href="#aA"/></g><path fill="#fff" d="M12 0v-35l95-120H19v-35h142v35L67-36h103V0H12" id="aB"/><g id="w"><use transform="matrix(0.04938271604938272,0,0,0.04938271604938272,0,0)" xlink:href="#ay"/><use transform="matrix(0.04938271604938272,0,0,0.04938271604938272,13.827160493827162,0)" xlink:href="#R"/><use transform="matrix(0.04938271604938272,0,0,0.04938271604938272,20.74074074074074,0)" xlink:href="#ah"/><use transform="matrix(0.04938271604938272,0,0,0.04938271604938272,31.555555555555557,0)" xlink:href="#O"/><use transform="matrix(0.04938271604938272,0,0,0.04938271604938272,41.4320987654321,0)" xlink:href="#aa"/><use transform="matrix(0.04938271604938272,0,0,0.04938271604938272,52.24691358024692,0)" xlink:href="#K"/><use transform="matrix(0.04938271604938272,0,0,0.04938271604938272,57.18518518518519,0)" xlink:href="#aB"/><use transform="matrix(0.04938271604938272,0,0,0.04938271604938272,66.07407407407408,0)" xlink:href="#O"/><use transform="matrix(0.04938271604938272,0,0,0.04938271604938272,75.95061728395062,0)" xlink:href="#T"/><use transform="matrix(0.04938271604938272,0,0,0.04938271604938272,81.82716049382717,0)" xlink:href="#K"/><use transform="matrix(0.04938271604938272,0,0,0.04938271604938272,86.76543209876544,0)" xlink:href="#W"/><use transform="matrix(0.04938271604938272,0,0,0.04938271604938272,97.58024691358025,0)" xlink:href="#aa"/></g><path d="M24-248c93 1 206-16 204 79-1 75-69 88-152 82V0H24v-248zm52 121c47 0 100 7 100-41 0-47-54-39-100-39v80" id="aC"/><path d="M137-138c1-29-70-34-71-4 15 46 118 7 119 86 1 83-164 76-172 9l43-7c4 19 20 25 44 25 33 8 57-30 24-41C81-84 22-81 20-136c-2-80 154-74 161-7" id="aD"/><path d="M110-194c64 0 96 36 96 99 0 64-35 99-97 99-61 0-95-36-95-99 0-62 34-99 96-99zm-1 164c35 0 45-28 45-65 0-40-10-65-43-65-34 0-45 26-45 65 0 36 10 65 43 65" id="aE"/><g id="x"><use transform="matrix(0.04938271604938272,0,0,0.04938271604938272,0,0)" xlink:href="#aC"/><use transform="matrix(0.04938271604938272,0,0,0.04938271604938272,11.851851851851853,0)" xlink:href="#ak"/><use transform="matrix(0.04938271604938272,0,0,0.04938271604938272,21.7283950617284,0)" xlink:href="#aq"/><use transform="matrix(0.04938271604938272,0,0,0.04938271604938272,28.64197530864198,0)" xlink:href="#aD"/><use transform="matrix(0.04938271604938272,0,0,0.04938271604938272,38.518518518518526,0)" xlink:href="#aE"/><use transform="matrix(0.04938271604938272,0,0,0.04938271604938272,49.33333333333334,0)" xlink:href="#an"/></g><path d="M25-224v-37h50v37H25zM75 22c2 45-34 59-81 51V38c22 5 31-5 31-27v-201h50V22" id="aF"/><path d="M190-63c-7 42-38 67-86 67-59 0-84-38-90-98-12-110 154-137 174-36l-49 2c-2-19-15-32-35-32-30 0-35 28-38 64-6 74 65 87 74 30" id="aG"/><g id="y"><use transform="matrix(0.04938271604938272,0,0,0.04938271604938272,0,0)" xlink:href="#aC"/><use transform="matrix(0.04938271604938272,0,0,0.04938271604938272,11.851851851851853,0)" xlink:href="#aq"/><use transform="matrix(0.04938271604938272,0,0,0.04938271604938272,18.765432098765434,0)" xlink:href="#aE"/><use transform="matrix(0.04938271604938272,0,0,0.04938271604938272,29.58024691358025,0)" xlink:href="#aF"/><use transform="matrix(0.04938271604938272,0,0,0.04938271604938272,34.51851851851852,0)" xlink:href="#ak"/><use transform="matrix(0.04938271604938272,0,0,0.04938271604938272,44.39506172839506,0)" xlink:href="#aG"/><use transform="matrix(0.04938271604938272,0,0,0.04938271604938272,54.27160493827161,0)" xlink:href="#at"/></g><path d="M67-125c0 53 21 87 73 88 37 1 54-22 65-47l45 17C233-25 199 4 140 4 58 4 20-42 15-125 8-235 124-281 211-232c18 10 29 29 36 50l-46 12c-8-25-30-41-62-41-52 0-71 34-72 86" id="aH"/><path d="M25 0v-261h50V0H25" id="aI"/><g id="z"><use transform="matrix(0.04938271604938272,0,0,0.04938271604938272,0,0)" xlink:href="#aH"/><use transform="matrix(0.04938271604938272,0,0,0.04938271604938272,12.790123456790125,0)" xlink:href="#aE"/><use transform="matrix(0.04938271604938272,0,0,0.04938271604938272,23.60493827160494,0)" xlink:href="#aI"/><use transform="matrix(0.04938271604938272,0,0,0.04938271604938272,28.543209876543212,0)" xlink:href="#aI"/><use transform="matrix(0.04938271604938272,0,0,0.04938271604938272,33.48148148148148,0)" xlink:href="#ak"/><use transform="matrix(0.04938271604938272,0,0,0.04938271604938272,43.358024691358025,0)" xlink:href="#aG"/><use transform="matrix(0.04938271604938272,0,0,0.04938271604938272,53.23456790123457,0)" xlink:href="#at"/><use transform="matrix(0.04938271604938272,0,0,0.04938271604938272,59.111111111111114,0)" xlink:href="#am"/><use transform="matrix(0.04938271604938272,0,0,0.04938271604938272,64.0493827160494,0)" xlink:href="#aE"/><use transform="matrix(0.04938271604938272,0,0,0.04938271604938272,74.8641975308642,0)" xlink:href="#an"/></g><path d="M67-125c0 54 23 88 75 88 28 0 53-7 68-21v-34h-60v-39h108v91C232-14 192 4 140 4 58 4 20-42 15-125 8-236 126-280 215-234c19 10 29 26 37 47l-47 15c-11-23-29-39-63-39-53 1-75 33-75 86" id="aJ"/><path d="M85 4C-2 5 27-109 22-190h50c7 57-23 150 33 157 60-5 35-97 40-157h50l1 190h-47c-2-12 1-28-3-38-12 25-28 42-61 42" id="aK"/><path d="M135-194c53 0 70 44 70 98 0 56-19 98-73 100-31 1-45-17-59-34 3 33 2 69 2 105H25l-1-265h48c2 10 0 23 3 31 11-24 29-35 60-35zM114-30c33 0 39-31 40-66 0-38-9-64-40-64-56 0-55 130 0 130" id="aL"/><g id="A"><use transform="matrix(0.04938271604938272,0,0,0.04938271604938272,0,0)" xlink:href="#aJ"/><use transform="matrix(0.04938271604938272,0,0,0.04938271604938272,13.827160493827162,0)" xlink:href="#aq"/><use transform="matrix(0.04938271604938272,0,0,0.04938271604938272,20.74074074074074,0)" xlink:href="#aE"/><use transform="matrix(0.04938271604938272,0,0,0.04938271604938272,31.555555555555557,0)" xlink:href="#aK"/><use transform="matrix(0.04938271604938272,0,0,0.04938271604938272,42.370370370370374,0)" xlink:href="#aL"/></g><path d="M133-34C117-15 103 5 69 4 32 3 11-16 11-54c-1-60 55-63 116-61 1-26-3-47-28-47-18 1-26 9-28 27l-52-2c7-38 36-58 82-57s74 22 75 68l1 82c-1 14 12 18 25 15v27c-30 8-71 5-69-32zm-48 3c29 0 43-24 42-57-32 0-66-3-65 30 0 17 8 27 23 27" id="aM"/><g id="B"><use transform="matrix(0.04938271604938272,0,0,0.04938271604938272,0,0)" xlink:href="#aj"/><use transform="matrix(0.04938271604938272,0,0,0.04938271604938272,12.790123456790125,0)" xlink:href="#aM"/><use transform="matrix(0.04938271604938272,0,0,0.04938271604938272,22.66666666666667,0)" xlink:href="#at"/><use transform="matrix(0.04938271604938272,0,0,0.04938271604938272,28.54320987654322,0)" xlink:href="#aM"/></g><path d="M123 10C108 53 80 86 19 72V37c35 8 53-11 59-39L3-190h52l48 148c12-52 28-100 44-148h51" id="aN"/><g id="C"><use transform="matrix(0.04938271604938272,0,0,0.04938271604938272,0,0)" xlink:href="#ap"/><use transform="matrix(0.04938271604938272,0,0,0.04938271604938272,9.481481481481481,0)" xlink:href="#aN"/><use transform="matrix(0.04938271604938272,0,0,0.04938271604938272,19.358024691358025,0)" xlink:href="#aL"/><use transform="matrix(0.04938271604938272,0,0,0.04938271604938272,30.172839506172842,0)" xlink:href="#ak"/></g><g id="D"><use transform="matrix(0.04938271604938272,0,0,0.04938271604938272,0,0)" xlink:href="#aj"/><use transform="matrix(0.04938271604938272,0,0,0.04938271604938272,12.790123456790125,0)" xlink:href="#aM"/><use transform="matrix(0.04938271604938272,0,0,0.04938271604938272,22.66666666666667,0)" xlink:href="#at"/><use transform="matrix(0.04938271604938272,0,0,0.04938271604938272,28.54320987654322,0)" xlink:href="#aM"/></g><path d="M195-6C206 82 75 100 31 46c-4-6-6-13-8-21l49-6c3 16 16 24 34 25 40 0 42-37 40-79-11 22-30 35-61 35-53 0-70-43-70-97 0-56 18-96 73-97 30 0 46 14 59 34l2-30h47zm-90-29c32 0 41-27 41-63 0-35-9-62-40-62-32 0-39 29-40 63 0 36 9 62 39 62" id="aO"/><g id="E"><use transform="matrix(0.04938271604938272,0,0,0.04938271604938272,0,0)" xlink:href="#aH"/><use transform="matrix(0.04938271604938272,0,0,0.04938271604938272,12.790123456790125,0)" xlink:href="#aM"/><use transform="matrix(0.04938271604938272,0,0,0.04938271604938272,22.66666666666667,0)" xlink:href="#at"/><use transform="matrix(0.04938271604938272,0,0,0.04938271604938272,28.54320987654322,0)" xlink:href="#aM"/><use transform="matrix(0.04938271604938272,0,0,0.04938271604938272,38.41975308641976,0)" xlink:href="#aI"/><use transform="matrix(0.04938271604938272,0,0,0.04938271604938272,43.35802469135803,0)" xlink:href="#aE"/><use transform="matrix(0.04938271604938272,0,0,0.04938271604938272,54.17283950617284,0)" xlink:href="#aO"/></g><g id="F"><use transform="matrix(0.04938271604938272,0,0,0.04938271604938272,0,0)" xlink:href="#S"/><use transform="matrix(0.04938271604938272,0,0,0.04938271604938272,12.790123456790125,0)" xlink:href="#O"/><use transform="matrix(0.04938271604938272,0,0,0.04938271604938272,22.66666666666667,0)" xlink:href="#T"/><use transform="matrix(0.04938271604938272,0,0,0.04938271604938272,28.54320987654322,0)" xlink:href="#O"/></g><g id="G"><use transform="matrix(0.04938271604938272,0,0,0.04938271604938272,0,0)" xlink:href="#U"/><use transform="matrix(0.04938271604938272,0,0,0.04938271604938272,14.765432098765434,0)" xlink:href="#O"/><use transform="matrix(0.04938271604938272,0,0,0.04938271604938272,24.641975308641978,0)" xlink:href="#aa"/><use transform="matrix(0.04938271604938272,0,0,0.04938271604938272,35.45679012345679,0)" xlink:href="#O"/><use transform="matrix(0.04938271604938272,0,0,0.04938271604938272,45.333333333333336,0)" xlink:href="#ah"/><use transform="matrix(0.04938271604938272,0,0,0.04938271604938272,56.14814814814815,0)" xlink:href="#M"/><use transform="matrix(0.04938271604938272,0,0,0.04938271604938272,66.0246913580247,0)" xlink:href="#ac"/><use transform="matrix(0.04938271604938272,0,0,0.04938271604938272,81.82716049382717,0)" xlink:href="#M"/><use transform="matrix(0.04938271604938272,0,0,0.04938271604938272,91.70370370370371,0)" xlink:href="#aa"/><use transform="matrix(0.04938271604938272,0,0,0.04938271604938272,102.51851851851853,0)" xlink:href="#T"/></g><g id="H"><use transform="matrix(0.04938271604938272,0,0,0.04938271604938272,0,0)" xlink:href="#V"/><use transform="matrix(0.04938271604938272,0,0,0.04938271604938272,11.851851851851853,0)" xlink:href="#L"/><use transform="matrix(0.04938271604938272,0,0,0.04938271604938272,16.790123456790127,0)" xlink:href="#O"/><use transform="matrix(0.04938271604938272,0,0,0.04938271604938272,26.666666666666668,0)" xlink:href="#aa"/></g><g id="I"><use transform="matrix(0.04938271604938272,0,0,0.04938271604938272,0,0)" xlink:href="#aH"/><use transform="matrix(0.04938271604938272,0,0,0.04938271604938272,12.790123456790125,0)" xlink:href="#aE"/><use transform="matrix(0.04938271604938272,0,0,0.04938271604938272,23.60493827160494,0)" xlink:href="#ar"/><use transform="matrix(0.04938271604938272,0,0,0.04938271604938272,39.40740740740741,0)" xlink:href="#ar"/><use transform="matrix(0.04938271604938272,0,0,0.04938271604938272,55.20987654320988,0)" xlink:href="#ak"/><use transform="matrix(0.04938271604938272,0,0,0.04938271604938272,65.08641975308643,0)" xlink:href="#an"/><use transform="matrix(0.04938271604938272,0,0,0.04938271604938272,75.90123456790124,0)" xlink:href="#at"/></g></defs></g></svg>