<svg xmlns="http://www.w3.org/2000/svg" xmlns:xlink="http://www.w3.org/1999/xlink" xmlns:lucid="lucid" width="1511" height="760.67"><g transform="translate(20 20)" lucid:page-tab-id="0_0"><path d="M1 560h1478" fill="none"/><path d="M1 560h3m4 0h5.98m4 0h6m3.98 0h6m4 0h5.98m4 0h6m3.98 0h6m4 0h5.98m4 0h6m3.98 0h6m4 0h5.98m4 0h6m3.98 0h6m4 0h5.98m4 0h6m3.98 0h6m4 0h5.98m4 0h6m3.98 0h6m4 0h5.98m4 0h6m3.98 0h6m4 0h5.98m4 0h6m3.98 0h6m4 0h5.98m4 0h5.98m4 0h6m4 0h5.98m4 0h5.98m4 0h6m4 0h5.98m4 0h5.98m4 0h6m3.98 0h6m4 0h5.98m4 0h6m3.98 0h6m4 0h5.98m4 0h6m3.98 0h6m4 0h5.98m4 0h6m3.98 0h6m4 0h5.98m4 0h6m3.98 0h6m4 0h5.98m4 0h6m3.98 0h6m4 0h5.98m4 0h6m3.98 0h6m4 0h5.98m4 0h6m3.98 0h6m4 0h5.98m4 0h6m3.98 0h6m4 0h5.98m4 0h6m3.98 0h6m4 0h5.98m4 0h5.98m4 0h6m4 0h5.98m4 0h5.98m4 0h6m4 0h5.98m4 0h5.98m4 0h6m3.98 0h6m4 0H723m4 0h6m3.98 0h6m4 0h5.98m4 0h6m3.98 0h6m4 0h5.98m4 0h6m3.98 0h6m4 0h5.98m4 0h6m3.98 0h6m4 0h5.98m4 0h6m3.98 0h6m4 0h5.98m4 0h6m3.98 0h6m4 0h5.98m4 0h6m3.98 0h6m4 0h5.98m4 0h6m3.98 0h6m4 0h5.98m4 0h6m3.98 0h6m4 0h5.98m4 0h5.98m4 0h6m4 0h5.98m4 0h5.98m4 0h6m4 0h5.98m4 0h5.98m4 0h6m3.98 0h6m4 0h5.98m4 0h6m3.98 0h6m4 0h5.98m4 0h6m3.98 0h6m4 0h5.98m4 0h6m3.98 0h6m4 0h5.98m4 0h6m3.98 0h6m4 0h5.98m4 0h6m3.98 0h6m4 0h5.98m4 0h6m3.98 0h6m4 0h5.98m4 0h6m3.98 0h6m4 0h5.98m4 0h6m3.98 0h6m4 0h5.98m4 0h6m3.98 0h6m4 0h5.98m4 0h5.98m4 0h6m4 0h5.98m4 0h5.98m4 0h6m4 0h5.98m4 0h5.98m4 0h6m3.98 0h6m4 0h5.98m4 0h6m3.98 0h3M1.03 560H0M1478.97 560h1.03" stroke="#3e9bd5" stroke-width="2" fill="none"/><path d="M660 559V1" fill="none"/><path d="M660 559v-3m0-3.98v-5.97m0-4v-5.97m0-3.98v-5.98m0-4v-5.97m0-3.98v-5.98m0-4v-5.97m0-4v-5.97m0-3.98v-5.98m0-4v-5.97m0-3.98v-5.98m0-4v-5.97m0-3.98v-5.98m0-4v-5.96m0-4v-5.97m0-3.97v-5.98m0-4v-5.97m0-3.98v-5.98m0-4v-5.97m0-3.98v-5.98m0-4v-5.97m0-4v-5.97m0-3.98v-5.98m0-4v-5.97m0-3.98v-5.98m0-4v-5.97m0-3.98v-5.98m0-4v-5.97m0-3.98v-6m0-3.98v-5.97m0-4v-5.97m0-3.98v-5.98m0-4v-5.97m0-3.98v-5.98m0-4v-5.98m0-3.98v-5.98m0-4v-5.96m0-4v-5.97m0-3.98v-5.98m0-4v-5.97m0-3.98v-5.98m0-4v-5.97m0-3.98v-6m0-3.98v-5.97m0-4v-5.97m0-3.98v-5.98m0-4v-5.97m0-3.98V87.7m0-4v-5.98m0-3.98v-5.98m0-4V57.8m0-4v-5.97m0-3.98v-5.98m0-4V27.9m0-3.98v-5.98m0-4V7.98M660 4V1M660 558.97V560M660 1.03V0" stroke="#3e9bd5" stroke-width="2" fill="none"/><path d="M661 180h818" fill="none"/><path d="M661 180h3m3.98 0h6m3.98 0h5.98m4 0h5.98m4 0h5.98m4 0h5.97m4 0h5.98m4 0h5.97m4 0h5.98m4 0h5.97m4 0h5.98m4 0h5.97m4 0h5.98m4 0h5.98m4 0h5.97m4 0h5.98m4 0h5.97m4 0h5.98m4 0h5.97m4 0h5.98m4 0h5.97m4 0h5.98m4 0h5.98m4 0h5.97m4 0h5.98m4 0h5.98m4 0h5.98m4 0h5.97m4 0h5.98m4 0h6m3.98 0h5.98m4 0h5.98m4 0h5.97m4 0h6m3.98 0h5.98m4 0h5.98m4 0h5.97m4 0h6m3.98 0h6m3.98 0h5.98m4 0h5.98m4 0h5.97m3.98 0h6m3.98 0h5.98m4 0h5.98m4 0h5.98m4 0h5.97m4 0h5.98m4 0h5.97m4 0h5.98m4 0h5.97m4 0h5.98m4 0h5.97m4 0h5.98m4 0h5.98m4 0h5.97m4 0h5.98m4 0h5.97m4 0h5.98m4 0h5.97m4 0h5.98m4 0h5.97m4 0h5.98m4 0h5.98m4 0h5.97m4 0h5.98m4 0h5.98m4 0h5.98m4 0h5.97m4 0h5.98m4 0h6m3.98 0h5.98m4 0h5.98m4 0h5.97m4 0h6m3.98 0h5.98m4 0h5.98m4 0h5.97m4 0h6m3.98 0h6m3.98 0h5.98m4 0h5.98m4 0h2.98M661.03 180H660M1478.97 180h1.03" stroke="#3e9bd5" stroke-width="2" fill="none"/><path d="M900 20h120v120H900zM1340 20h120v120h-120zM1040 20h120v120h-120zM20 80h280v440H20z" stroke="#000" stroke-width="2" fill="#fff"/><path d="M40 380h240v120H40z" stroke="#000" stroke-width="2" fill="#fff"/><use xlink:href="#a" transform="matrix(1,0,0,1,45.00000000000003,385) translate(108 35)"/><use xlink:href="#b" transform="matrix(1,0,0,1,45.00000000000003,385) translate(108 59)"/><use xlink:href="#c" transform="matrix(1,0,0,1,45.00000000000003,385) translate(108 83)"/><path d="M134.08 422.64c3.6 2.56 5.92 6.88 5.92 11.6 0 7.84-6.4 14.24-14.24 14.24l-17.68.08c-.4-1.04-.96-2-1.68-2.88.72-.8 1.28-1.76 1.68-2.88h17.6c4.8 0 8.64-3.84 8.64-8.56 0-4.16-3.04-7.68-6.96-8.4.64-1.36 1.04-2.8 1.04-4.4 0-5.52-4.48-10-10-10-3.12 0-5.84 1.36-7.68 3.52-1.52-5.36-6.48-9.28-12.32-9.28-7.12 0-12.88 5.76-12.88 12.88 0 .64.08 1.2.16 1.76-3.2.8-5.84 2.64-7.36 5.36h-6.16c1.36-3.92 4.08-7.2 7.76-9.2C80.96 407.2 88.8 400 98.4 400c5.68 0 10.88 2.56 14.32 6.8 1.76-.72 3.68-1.12 5.68-1.12 8.64 0 15.68 7.04 15.68 15.76v1.2z" stroke="#000" stroke-opacity="0" stroke-width=".06" fill="#3e9bd5"/><path d="M65.68 428.56H100c3.12 0 5.68 2.56 5.68 5.76V440c0 3.12-2.56 5.68-5.68 5.68 3.12 0 5.68 2.64 5.68 5.76v5.68c0 3.2-2.56 5.76-5.68 5.76 3.12 0 5.68 2.56 5.68 5.68v5.76c0 3.12-2.56 5.68-5.68 5.68H65.68c-3.12 0-5.68-2.56-5.68-5.68v-5.76c0-3.12 2.56-5.68 5.68-5.68-3.12 0-5.68-2.56-5.68-5.76v-5.68c0-3.2 2.56-5.76 5.68-5.76-3.12 0-5.68-2.56-5.68-5.68v-5.68c0-3.2 2.56-5.76 5.68-5.76zm1.2 40c-.64 0-1.2.64-1.2 1.44v2.88c0 .8.56 1.44 1.2 1.44h16v-5.76h-16zm0-34.24c-.64 0-1.2.64-1.2 1.36v2.88c0 .8.56 1.44 1.2 1.44h16v-5.68h-16zm0 17.12c-.64 0-1.2.64-1.2 1.44v2.8c0 .8.56 1.44 1.2 1.44h16v-5.68h-16z" stroke="#000" stroke-opacity="0" stroke-width=".06" fill="#252525"/><path d="M40 240h240v120H40z" stroke="#000" stroke-width="2" fill="#fff"/><use xlink:href="#d" transform="matrix(1,0,0,1,45.00000000000003,245) translate(108 47)"/><use xlink:href="#e" transform="matrix(1,0,0,1,45.00000000000003,245) translate(108 71)"/><path d="M129.44 287.2c-.08.17-.16.34-.08.6l.64 5.46c.08.85-.32 1.7-1.12 2.05-1.28.6-2.56 1.12-3.84 1.46-.88.25-1.68 0-2.24-.7l-3.2-4.5c-.16-.18-.32-.35-.56-.35-1.12-.08-2.24-.25-3.28-.6-.16.1-.32.1-.48.27l-4.48 3.33c-.72.5-1.6.5-2.32 0-1.12-.77-2.16-1.62-3.2-2.56-.64-.6-.8-1.45-.48-2.3l2.32-5.04c.08-.26.08-.43 0-.6-.48-1.02-.88-2.05-1.2-3.16-.08-.17-.24-.25-.4-.34l-5.12-2.22c-.8-.34-1.28-1.1-1.2-1.96.16-1.37.32-2.73.64-4.1.24-.85.88-1.45 1.76-1.53l5.52-.53c.24 0 .4-.17.56-.25.64-.94 1.28-1.8 2.08-2.56.16-.17.16-.43.16-.6l-.72-5.55c-.08-.84.4-1.6 1.12-1.95 1.28-.6 2.56-1.1 3.92-1.53.8-.26 1.68 0 2.16.76l3.28 4.53c.08.18.32.26.48.35 1.12 0 2.24.25 3.28.5.16 0 .4-.08.56-.16l4.4-3.34c.72-.5 1.6-.6 2.32-.08 1.2.85 2.24 1.62 3.28 2.64.64.6.8 1.45.4 2.22l-2.24 5.12c-.08.17-.16.43-.08.6.48.94.88 2.05 1.2 3.07.08.17.24.34.4.43l5.12 2.13c.8.33 1.28 1.1 1.2 1.95-.16 1.45-.32 2.73-.64 4.1-.16.85-.88 1.45-1.76 1.54l-5.52.58c-.24 0-.4.1-.56.26-.56.94-1.28 1.8-2.08 2.56zm-9.84-15.87c-3.2 0-5.84 2.56-5.84 5.8 0 3.16 2.64 5.8 5.84 5.8 3.2 0 5.84-2.64 5.84-5.8 0-3.24-2.64-5.8-5.84-5.8z" stroke="#000" stroke-opacity="0" stroke-width=".05" fill="#3e9bd5"/><path d="M104.32 293.6c.72.5 1.44 1.2 2.16 1.8.24.25.64.42 1.04.25l5.92-1.62c.96-.26 1.92.08 2.4.93.88 1.3 1.6 2.57 2.32 3.93.4.93.24 1.87-.48 2.55l-4.4 4.35c-.32.26-.4.6-.32 1.03.24.85.4 1.8.48 2.73 0 .42.24.77.64.94l5.6 2.56c.88.42 1.36 1.28 1.28 2.22-.24 1.53-.48 2.98-.88 4.52-.24.94-.96 1.62-1.92 1.62l-6.16.5c-.4 0-.72.18-.96.6-.4.78-.88 1.63-1.36 2.4-.24.34-.32.68-.08 1.1l2.64 5.56c.4.85.16 1.87-.48 2.56-1.2 1.02-2.32 1.96-3.6 2.9-.72.6-1.76.6-2.56 0l-5.04-3.67c-.32-.17-.64-.26-1.04-.1-.88.35-1.68.7-2.64.95-.32.1-.64.43-.72.77l-1.6 5.96c-.24.94-1.04 1.62-2 1.62-1.52.1-3.04.1-4.56 0-.96-.08-1.76-.76-2-1.62l-1.52-6.06c-.08-.34-.32-.68-.72-.76-.88-.26-1.76-.6-2.56-.94-.4-.17-.8-.17-1.12.08l-5.04 3.6c-.8.5-1.76.5-2.56-.1-1.28-.94-2.4-1.88-3.52-3-.72-.67-.88-1.6-.4-2.46l2.64-5.63c.16-.35.16-.7 0-1.04-.56-.76-.96-1.53-1.36-2.4-.24-.33-.56-.58-.96-.58l-6.16-.52c-.96-.08-1.68-.76-1.92-1.7-.4-1.54-.64-3-.8-4.53-.08-.93.4-1.87 1.28-2.2l5.68-2.57c.32-.18.56-.43.64-.86.08-.94.24-1.8.48-2.73.08-.34 0-.77-.32-1.02l-4.4-4.36c-.64-.7-.8-1.7-.4-2.57.72-1.36 1.44-2.64 2.32-3.92.56-.84 1.52-1.2 2.4-.93l6 1.7c.4.18.72 0 1.04-.25.64-.6 1.36-1.2 2.08-1.7.32-.26.48-.6.48-1.03l-.56-6.15c-.08-1.03.4-1.88 1.28-2.22 1.44-.7 2.8-1.2 4.32-1.62.96-.25 1.92.18 2.4.94l3.52 5.12c.24.35.56.52.96.52.96-.1 1.84-.1 2.8 0 .4 0 .72-.17.96-.52l3.52-5.12c.56-.76 1.52-1.1 2.4-.85 1.52.5 2.88 1 4.32 1.6.88.44 1.44 1.3 1.28 2.23l-.64 6.15c0 .42.16.76.48 1.02zm-13.84 6.83c-6.4 0-11.68 5.2-11.68 11.6 0 6.5 5.28 11.7 11.68 11.7 6.48 0 11.68-5.2 11.68-11.7 0-6.4-5.2-11.6-11.68-11.6z" stroke="#000" stroke-opacity="0" stroke-width=".05" fill="#252525"/><path d="M40 100h240v120H40z" stroke="#000" stroke-width="2" fill="#fff"/><use xlink:href="#f" transform="matrix(1,0,0,1,45.00000000000003,105) translate(108 35)"/><use xlink:href="#g" transform="matrix(1,0,0,1,45.00000000000003,105) translate(108 59)"/><use xlink:href="#c" transform="matrix(1,0,0,1,45.00000000000003,105) translate(108 83)"/><path d="M140 191.4c0 1.56-1.28 2.87-2.88 2.87h-74.2c-1.6 0-2.87-1.3-2.87-2.88V131.4c0-3.15 2.56-5.7 5.67-5.7h68.6c3.12 0 5.68 2.62 5.68 5.7v59.97zm-51.4-48.53v45.7h45.72v-45.7H88.6zm-22.88 0v45.7h17.2v-45.7H65.7z" stroke="#000" stroke-opacity="0" stroke-width=".06" fill="#252525"/><path d="M114.34 145.75h11.35v11.37h-11.36v-11.37zm-17.2 0h11.44v11.37H97.15v-11.37zm17.2 14.25h11.35v11.44h-11.36V160zm-17.2 0h11.44v11.44H97.15V160zm17.2 14.25h11.35v11.45h-11.36v-11.45zm-17.2 0h11.44v11.45H97.15v-11.45z" stroke="#000" stroke-opacity="0" stroke-width=".06" fill="#3e9bd5"/><path d="M68.6 148.56h11.44v5.75H68.6v-5.74zm0 17.13h11.44v5.74H68.6v-5.75zm0-8.58h11.36v5.76H68.6v-5.76z" stroke="#000" stroke-opacity="0" stroke-width=".06" fill="#252525"/><path d="M0 0h80v80H0z" stroke="#000" stroke-opacity="0" stroke-width="2" fill="#fff" fill-opacity="0"/><use xlink:href="#h" transform="matrix(1,0,0,1,5,5) translate(16.074074074074073 41.22222222222222)"/><path d="M660 0h80v80h-80z" stroke="#000" stroke-opacity="0" stroke-width="2" fill="#fff" fill-opacity="0"/><use xlink:href="#i" transform="matrix(1,0,0,1,665,5) translate(15.253086419753085 41.22222222222222)"/><path d="M900 600.67h120v120H900z" stroke="#000" stroke-width="2" fill="#fff"/><path d="M962.64 672.68c1.52 0 2.72 1.18 2.72 2.67H976v5.3h-10.64c0 1.5-1.2 2.68-2.72 2.68h-5.28c-1.52 0-2.72-1.18-2.72-2.67H944v-5.3h10.64c0-1.5 1.2-2.68 2.72-2.68v-5.35h5.28v5.35zM985.36 643.35c2.16 0 4 1.77 4 4 0 2.2-1.84 3.98-4 3.98-2.24 0-4-1.77-4-4 0-2.2 1.76-3.98 4-3.98z" stroke="#000" stroke-opacity="0" stroke-width=".05" fill="#3e9bd5"/><path d="M920 638h80v10.65h-2.64c-1.52 0-2.72 1.23-2.72 2.68 0 1.5 1.2 2.67 2.72 2.67h2.64v10.66h-80V654h2.64c1.52 0 2.72-1.18 2.72-2.67 0-1.45-1.2-2.68-2.72-2.68H920V638zm10.64 10.65V654H936v-5.35h-5.36zm40-7.98v5.3H976v-5.3h-5.36zm-8 0v5.3H968v-5.3h-5.36zm-8 0v5.3H960v-5.3h-5.36zm-8 0v5.3H952v-5.3h-5.36zm-8 0v5.3H944v-5.3h-5.36zm-8 0v5.3H936v-5.3h-5.36zm40 16v5.3H976v-5.3h-5.36zm-8 0v5.3H968v-5.3h-5.36zm-8 0v5.3H960v-5.3h-5.36zm-8 0v5.3H952v-5.3h-5.36zm-8 0v5.3H944v-5.3h-5.36zm-8 0v5.3H936v-5.3h-5.36zm40-8.02V654H976v-5.35h-5.36zm-8 0V654H968v-5.35h-5.36zm-8 0V654H960v-5.35h-5.36zm-8 0V654H952v-5.35h-5.36zm-8 0V654H944v-5.35h-5.36zm42.72 8.03v5.3h8v-5.3h-8zm4-16c-3.68 0-6.72 3-6.72 6.66 0 3.67 3.04 6.66 6.72 6.66 3.68 0 6.64-3 6.64-6.66 0-3.67-2.96-6.67-6.64-6.67z" stroke="#000" stroke-opacity="0" stroke-width=".05" fill="#252525"/><path d="M620 599h280v119.34H620z" stroke="#000" stroke-opacity="0" stroke-width="2" fill="#fff" fill-opacity="0"/><use xlink:href="#j" transform="matrix(1,0,0,1,625,604) translate(63.5 47)"/><use xlink:href="#k" transform="matrix(1,0,0,1,625,604) translate(112.27777777777779 47)"/><use xlink:href="#l" transform="matrix(1,0,0,1,625,604) translate(192.11111111111111 47)"/><use xlink:href="#m" transform="matrix(1,0,0,1,625,604) translate(64.58333333333333 71)"/><use xlink:href="#n" transform="matrix(1,0,0,1,625,604) translate(152.1388888888889 71)"/><path d="M1040 600h120v120h-120z" stroke="#000" stroke-width="2" fill="#fff"/><path d="M1102.64 672c1.52 0 2.72 1.2 2.72 2.7H1116v5.3h-10.64c0 1.5-1.2 2.67-2.72 2.67h-5.28c-1.52 0-2.72-1.18-2.72-2.68H1084v-5.3h10.64c0-1.5 1.2-2.7 2.72-2.7v-5.34h5.28V672zM1125.36 642.68c2.16 0 4 1.77 4 4 0 2.2-1.84 3.98-4 3.98-2.24 0-4-1.77-4-4 0-2.2 1.76-3.98 4-3.98z" stroke="#000" stroke-opacity="0" stroke-width=".05" fill="#3e9bd5"/><path d="M1060 637.33h80V648h-2.64c-1.52 0-2.72 1.2-2.72 2.66 0 1.5 1.2 2.68 2.72 2.68h2.64V664h-80v-10.66h2.64c1.52 0 2.72-1.18 2.72-2.68 0-1.45-1.2-2.67-2.72-2.67H1060v-10.67zm10.64 10.66v5.34h5.36V648h-5.36zm40-8v5.3h5.36V640h-5.36zm-8 0v5.3h5.36V640h-5.36zm-8 0v5.3h5.36V640h-5.36zm-8 0v5.3h5.36V640h-5.36zm-8 0v5.3h5.36V640h-5.36zm-8 0v5.3h5.36V640h-5.36zm40 16v5.3h5.36V656h-5.36zm-8 0v5.3h5.36V656h-5.36zm-8 0v5.3h5.36V656h-5.36zm-8 0v5.3h5.36V656h-5.36zm-8 0v5.3h5.36V656h-5.36zm-8 0v5.3h5.36V656h-5.36zm40-8v5.34h5.36V648h-5.36zm-8 0v5.34h5.36V648h-5.36zm-8 0v5.34h5.36V648h-5.36zm-8 0v5.34h5.36V648h-5.36zm-8 0v5.34h5.36V648h-5.36zm42.72 8v5.3h8V656h-8zm4-16c-3.68 0-6.72 3-6.72 6.67s3.04 6.67 6.72 6.67c3.68 0 6.64-3 6.64-6.67s-2.96-6.66-6.64-6.66z" stroke="#000" stroke-opacity="0" stroke-width=".05" fill="#252525"/><path d="M900 220h260v300H900z" stroke="#000" stroke-width="2" fill="#fff"/><path d="M920 380h220v120H920z" stroke="#000" stroke-width="2" fill="#fff"/><use xlink:href="#o" transform="matrix(1,0,0,1,925,385.00000000000006) translate(108 35)"/><use xlink:href="#p" transform="matrix(1,0,0,1,925,385.00000000000006) translate(108 59)"/><use xlink:href="#q" transform="matrix(1,0,0,1,925,385.00000000000006) translate(108 83)"/><path d="M1014.08 422.64c3.6 2.56 5.92 6.88 5.92 11.6 0 7.84-6.4 14.24-14.24 14.24l-17.68.08c-.4-1.04-.96-2-1.68-2.88.72-.8 1.28-1.76 1.68-2.88h17.6c4.8 0 8.64-3.84 8.64-8.56 0-4.16-3.04-7.68-6.96-8.4.64-1.36 1.04-2.8 1.04-4.4 0-5.52-4.48-10-10-10-3.12 0-5.84 1.36-7.68 3.52-1.52-5.36-6.48-9.28-12.32-9.28-7.12 0-12.88 5.76-12.88 12.88 0 .64.08 1.2.16 1.76-3.2.8-5.84 2.64-7.36 5.36h-6.16c1.36-3.92 4.08-7.2 7.76-9.2 1.04-9.28 8.88-16.48 18.48-16.48 5.68 0 10.88 2.56 14.32 6.8 1.76-.72 3.68-1.12 5.68-1.12 8.64 0 15.68 7.04 15.68 15.76v1.2z" stroke="#000" stroke-opacity="0" stroke-width=".06" fill="#3e9bd5"/><path d="M945.68 428.56H980c3.12 0 5.68 2.56 5.68 5.76V440c0 3.12-2.56 5.68-5.68 5.68 3.12 0 5.68 2.64 5.68 5.76v5.68c0 3.2-2.56 5.76-5.68 5.76 3.12 0 5.68 2.56 5.68 5.68v5.76c0 3.12-2.56 5.68-5.68 5.68h-34.32c-3.12 0-5.68-2.56-5.68-5.68v-5.76c0-3.12 2.56-5.68 5.68-5.68-3.12 0-5.68-2.56-5.68-5.76v-5.68c0-3.2 2.56-5.76 5.68-5.76-3.12 0-5.68-2.56-5.68-5.68v-5.68c0-3.2 2.56-5.76 5.68-5.76zm1.2 40c-.64 0-1.2.64-1.2 1.44v2.88c0 .8.56 1.44 1.2 1.44h16v-5.76h-16zm0-34.24c-.64 0-1.2.64-1.2 1.36v2.88c0 .8.56 1.44 1.2 1.44h16v-5.68h-16zm0 17.12c-.64 0-1.2.64-1.2 1.44v2.8c0 .8.56 1.44 1.2 1.44h16v-5.68h-16z" stroke="#000" stroke-opacity="0" stroke-width=".06" fill="#252525"/><path d="M920 240h220v120H920z" stroke="#000" stroke-width="2" fill="#fff"/><use xlink:href="#r" transform="matrix(1,0,0,1,925,245) translate(108 47)"/><use xlink:href="#s" transform="matrix(1,0,0,1,925,245) translate(108 71)"/><path d="M1009.44 287.2c-.08.17-.16.34-.08.6l.64 5.46c.08.85-.32 1.7-1.12 2.05-1.28.6-2.56 1.12-3.84 1.46-.88.25-1.68 0-2.24-.7l-3.2-4.5c-.16-.18-.32-.35-.56-.35-1.12-.08-2.24-.25-3.28-.6-.16.1-.32.1-.48.27l-4.48 3.33c-.72.5-1.6.5-2.32 0-1.12-.77-2.16-1.62-3.2-2.56-.64-.6-.8-1.45-.48-2.3l2.32-5.04c.08-.26.08-.43 0-.6-.48-1.02-.88-2.05-1.2-3.16-.08-.17-.24-.25-.4-.34l-5.12-2.22c-.8-.34-1.28-1.1-1.2-1.96.16-1.37.32-2.73.64-4.1.24-.85.88-1.45 1.76-1.53l5.52-.53c.24 0 .4-.17.56-.25.64-.94 1.28-1.8 2.08-2.56.16-.17.16-.43.16-.6l-.72-5.55c-.08-.84.4-1.6 1.12-1.95 1.28-.6 2.56-1.1 3.92-1.53.8-.26 1.68 0 2.16.76l3.28 4.53c.08.18.32.26.48.35 1.12 0 2.24.25 3.28.5.16 0 .4-.08.56-.16l4.4-3.34c.72-.5 1.6-.6 2.32-.08 1.2.85 2.24 1.62 3.28 2.64.64.6.8 1.45.4 2.22l-2.24 5.12c-.08.17-.16.43-.08.6.48.94.88 2.05 1.2 3.07.08.17.24.34.4.43l5.12 2.13c.8.33 1.28 1.1 1.2 1.95-.16 1.45-.32 2.73-.64 4.1-.16.85-.88 1.45-1.76 1.54l-5.52.58c-.24 0-.4.1-.56.26-.56.94-1.28 1.8-2.08 2.56zm-9.84-15.87c-3.2 0-5.84 2.56-5.84 5.8 0 3.16 2.64 5.8 5.84 5.8 3.2 0 5.84-2.64 5.84-5.8 0-3.24-2.64-5.8-5.84-5.8z" stroke="#000" stroke-opacity="0" stroke-width=".05" fill="#3e9bd5"/><path d="M984.32 293.6c.72.5 1.44 1.2 2.16 1.8.24.25.64.42 1.04.25l5.92-1.62c.96-.26 1.92.08 2.4.93.88 1.3 1.6 2.57 2.32 3.93.4.93.24 1.87-.48 2.55l-4.4 4.35c-.32.26-.4.6-.32 1.03.24.85.4 1.8.48 2.73 0 .42.24.77.64.94l5.6 2.56c.88.42 1.36 1.28 1.28 2.22-.24 1.53-.48 2.98-.88 4.52-.24.94-.96 1.62-1.92 1.62l-6.16.5c-.4 0-.72.18-.96.6-.4.78-.88 1.63-1.36 2.4-.24.34-.32.68-.08 1.1l2.64 5.56c.4.85.16 1.87-.48 2.56-1.2 1.02-2.32 1.96-3.6 2.9-.72.6-1.76.6-2.56 0l-5.04-3.67c-.32-.17-.64-.26-1.04-.1-.88.35-1.68.7-2.64.95-.32.1-.64.43-.72.77l-1.6 5.96c-.24.94-1.04 1.62-2 1.62-1.52.1-3.04.1-4.56 0-.96-.08-1.76-.76-2-1.62l-1.52-6.06c-.08-.34-.32-.68-.72-.76-.88-.26-1.76-.6-2.56-.94-.4-.17-.8-.17-1.12.08l-5.04 3.6c-.8.5-1.76.5-2.56-.1-1.28-.94-2.4-1.88-3.52-3-.72-.67-.88-1.6-.4-2.46l2.64-5.63c.16-.35.16-.7 0-1.04-.56-.76-.96-1.53-1.36-2.4-.24-.33-.56-.58-.96-.58l-6.16-.52c-.96-.08-1.68-.76-1.92-1.7-.4-1.54-.64-3-.8-4.53-.08-.93.4-1.87 1.28-2.2l5.68-2.57c.32-.18.56-.43.64-.86.08-.94.24-1.8.48-2.73.08-.34 0-.77-.32-1.02l-4.4-4.36c-.64-.7-.8-1.7-.4-2.57.72-1.36 1.44-2.64 2.32-3.92.56-.84 1.52-1.2 2.4-.93l6 1.7c.4.18.72 0 1.04-.25.64-.6 1.36-1.2 2.08-1.7.32-.26.48-.6.48-1.03l-.56-6.15c-.08-1.03.4-1.88 1.28-2.22 1.44-.7 2.8-1.2 4.32-1.62.96-.25 1.92.18 2.4.94l3.52 5.12c.24.35.56.52.96.52.96-.1 1.84-.1 2.8 0 .4 0 .72-.17.96-.52l3.52-5.12c.56-.76 1.52-1.1 2.4-.85 1.52.5 2.88 1 4.32 1.6.88.44 1.44 1.3 1.28 2.23l-.64 6.15c0 .42.16.76.48 1.02zm-13.84 6.83c-6.4 0-11.68 5.2-11.68 11.6 0 6.5 5.28 11.7 11.68 11.7 6.48 0 11.68-5.2 11.68-11.7 0-6.4-5.2-11.6-11.68-11.6z" stroke="#000" stroke-opacity="0" stroke-width=".05" fill="#252525"/><path d="M1200 220h260v300h-260z" stroke="#000" stroke-width="2" fill="#fff"/><path d="M1220 380h220v120h-220z" stroke="#000" stroke-width="2" fill="#fff"/><use xlink:href="#o" transform="matrix(1,0,0,1,1225,385.00000000000006) translate(108 35)"/><use xlink:href="#p" transform="matrix(1,0,0,1,1225,385.00000000000006) translate(108 59)"/><use xlink:href="#q" transform="matrix(1,0,0,1,1225,385.00000000000006) translate(108 83)"/><path d="M1314.08 422.64c3.6 2.56 5.92 6.88 5.92 11.6 0 7.84-6.4 14.24-14.24 14.24l-17.68.08c-.4-1.04-.96-2-1.68-2.88.72-.8 1.28-1.76 1.68-2.88h17.6c4.8 0 8.64-3.84 8.64-8.56 0-4.16-3.04-7.68-6.96-8.4.64-1.36 1.04-2.8 1.04-4.4 0-5.52-4.48-10-10-10-3.12 0-5.84 1.36-7.68 3.52-1.52-5.36-6.48-9.28-12.32-9.28-7.12 0-12.88 5.76-12.88 12.88 0 .64.08 1.2.16 1.76-3.2.8-5.84 2.64-7.36 5.36h-6.16c1.36-3.92 4.08-7.2 7.76-9.2 1.04-9.28 8.88-16.48 18.48-16.48 5.68 0 10.88 2.56 14.32 6.8 1.76-.72 3.68-1.12 5.68-1.12 8.64 0 15.68 7.04 15.68 15.76v1.2z" stroke="#000" stroke-opacity="0" stroke-width=".06" fill="#3e9bd5"/><path d="M1245.68 428.56H1280c3.12 0 5.68 2.56 5.68 5.76V440c0 3.12-2.56 5.68-5.68 5.68 3.12 0 5.68 2.64 5.68 5.76v5.68c0 3.2-2.56 5.76-5.68 5.76 3.12 0 5.68 2.56 5.68 5.68v5.76c0 3.12-2.56 5.68-5.68 5.68h-34.32c-3.12 0-5.68-2.56-5.68-5.68v-5.76c0-3.12 2.56-5.68 5.68-5.68-3.12 0-5.68-2.56-5.68-5.76v-5.68c0-3.2 2.56-5.76 5.68-5.76-3.12 0-5.68-2.56-5.68-5.68v-5.68c0-3.2 2.56-5.76 5.68-5.76zm1.2 40c-.64 0-1.2.64-1.2 1.44v2.88c0 .8.56 1.44 1.2 1.44h16v-5.76h-16zm0-34.24c-.64 0-1.2.64-1.2 1.36v2.88c0 .8.56 1.44 1.2 1.44h16v-5.68h-16zm0 17.12c-.64 0-1.2.64-1.2 1.44v2.8c0 .8.56 1.44 1.2 1.44h16v-5.68h-16z" stroke="#000" stroke-opacity="0" stroke-width=".06" fill="#252525"/><path d="M1220 240h220v120h-220z" stroke="#000" stroke-width="2" fill="#fff"/><use xlink:href="#r" transform="matrix(1,0,0,1,1225,245) translate(108 47)"/><use xlink:href="#s" transform="matrix(1,0,0,1,1225,245) translate(108 71)"/><path d="M1309.44 287.2c-.08.17-.16.34-.08.6l.64 5.46c.08.85-.32 1.7-1.12 2.05-1.28.6-2.56 1.12-3.84 1.46-.88.25-1.68 0-2.24-.7l-3.2-4.5c-.16-.18-.32-.35-.56-.35-1.12-.08-2.24-.25-3.28-.6-.16.1-.32.1-.48.27l-4.48 3.33c-.72.5-1.6.5-2.32 0-1.12-.77-2.16-1.62-3.2-2.56-.64-.6-.8-1.45-.48-2.3l2.32-5.04c.08-.26.08-.43 0-.6-.48-1.02-.88-2.05-1.2-3.16-.08-.17-.24-.25-.4-.34l-5.12-2.22c-.8-.34-1.28-1.1-1.2-1.96.16-1.37.32-2.73.64-4.1.24-.85.88-1.45 1.76-1.53l5.52-.53c.24 0 .4-.17.56-.25.64-.94 1.28-1.8 2.08-2.56.16-.17.16-.43.16-.6l-.72-5.55c-.08-.84.4-1.6 1.12-1.95 1.28-.6 2.56-1.1 3.92-1.53.8-.26 1.68 0 2.16.76l3.28 4.53c.08.18.32.26.48.35 1.12 0 2.24.25 3.28.5.16 0 .4-.08.56-.16l4.4-3.34c.72-.5 1.6-.6 2.32-.08 1.2.85 2.24 1.62 3.28 2.64.64.6.8 1.45.4 2.22l-2.24 5.12c-.08.17-.16.43-.08.6.48.94.88 2.05 1.2 3.07.08.17.24.34.4.43l5.12 2.13c.8.33 1.28 1.1 1.2 1.95-.16 1.45-.32 2.73-.64 4.1-.16.85-.88 1.45-1.76 1.54l-5.52.58c-.24 0-.4.1-.56.26-.56.94-1.28 1.8-2.08 2.56zm-9.84-15.87c-3.2 0-5.84 2.56-5.84 5.8 0 3.16 2.64 5.8 5.84 5.8 3.2 0 5.84-2.64 5.84-5.8 0-3.24-2.64-5.8-5.84-5.8z" stroke="#000" stroke-opacity="0" stroke-width=".05" fill="#3e9bd5"/><path d="M1284.32 293.6c.72.5 1.44 1.2 2.16 1.8.24.25.64.42 1.04.25l5.92-1.62c.96-.26 1.92.08 2.4.93.88 1.3 1.6 2.57 2.32 3.93.4.93.24 1.87-.48 2.55l-4.4 4.35c-.32.26-.4.6-.32 1.03.24.85.4 1.8.48 2.73 0 .42.24.77.64.94l5.6 2.56c.88.42 1.36 1.28 1.28 2.22-.24 1.53-.48 2.98-.88 4.52-.24.94-.96 1.62-1.92 1.62l-6.16.5c-.4 0-.72.18-.96.6-.4.78-.88 1.63-1.36 2.4-.24.34-.32.68-.08 1.1l2.64 5.56c.4.85.16 1.87-.48 2.56-1.2 1.02-2.32 1.96-3.6 2.9-.72.6-1.76.6-2.56 0l-5.04-3.67c-.32-.17-.64-.26-1.04-.1-.88.35-1.68.7-2.64.95-.32.1-.64.43-.72.77l-1.6 5.96c-.24.94-1.04 1.62-2 1.62-1.52.1-3.04.1-4.56 0-.96-.08-1.76-.76-2-1.62l-1.52-6.06c-.08-.34-.32-.68-.72-.76-.88-.26-1.76-.6-2.56-.94-.4-.17-.8-.17-1.12.08l-5.04 3.6c-.8.5-1.76.5-2.56-.1-1.28-.94-2.4-1.88-3.52-3-.72-.67-.88-1.6-.4-2.46l2.64-5.63c.16-.35.16-.7 0-1.04-.56-.76-.96-1.53-1.36-2.4-.24-.33-.56-.58-.96-.58l-6.16-.52c-.96-.08-1.68-.76-1.92-1.7-.4-1.54-.64-3-.8-4.53-.08-.93.4-1.87 1.28-2.2l5.68-2.57c.32-.18.56-.43.64-.86.08-.94.24-1.8.48-2.73.08-.34 0-.77-.32-1.02l-4.4-4.36c-.64-.7-.8-1.7-.4-2.57.72-1.36 1.44-2.64 2.32-3.92.56-.84 1.52-1.2 2.4-.93l6 1.7c.4.18.72 0 1.04-.25.64-.6 1.36-1.2 2.08-1.7.32-.26.48-.6.48-1.03l-.56-6.15c-.08-1.03.4-1.88 1.28-2.22 1.44-.7 2.8-1.2 4.32-1.62.96-.25 1.92.18 2.4.94l3.52 5.12c.24.35.56.52.96.52.96-.1 1.84-.1 2.8 0 .4 0 .72-.17.96-.52l3.52-5.12c.56-.76 1.52-1.1 2.4-.85 1.52.5 2.88 1 4.32 1.6.88.44 1.44 1.3 1.28 2.23l-.64 6.15c0 .42.16.76.48 1.02zm-13.84 6.83c-6.4 0-11.68 5.2-11.68 11.6 0 6.5 5.28 11.7 11.68 11.7 6.48 0 11.68-5.2 11.68-11.7 0-6.4-5.2-11.6-11.68-11.6z" stroke="#000" stroke-opacity="0" stroke-width=".05" fill="#252525"/><path d="M1028.67 522.5l-67.34 75.67" stroke="#000" stroke-width="4" fill="none"/><path d="M1030.13 523.86l-3-2.66.2-.2h5.35zM962.86 599.46l-.18.2h-5.36l2.55-2.86z"/><path d="M1031.34 522.5l67.32 75" stroke="#000" stroke-width="4" fill="none"/><path d="M1032.86 521.2l-2.98 2.66-2.57-2.86h5.4zM1102.7 599h-5.4l-.16-.2 2.98-2.66z"/><path d="M20 601.33h120v119.34H20z" stroke="#000" stroke-width="2" fill="#fff"/><path d="M82.64 674.68c1.52 0 2.72 1.18 2.72 2.67H96v5.3H85.36c0 1.5-1.2 2.68-2.72 2.68h-5.28c-1.52 0-2.72-1.18-2.72-2.67H64v-5.3h10.64c0-1.5 1.2-2.68 2.72-2.68v-5.35h5.28v5.35zM105.36 645.35c2.16 0 4 1.77 4 4 0 2.2-1.84 3.98-4 3.98-2.24 0-4-1.77-4-4 0-2.2 1.76-3.98 4-3.98z" stroke="#000" stroke-opacity="0" stroke-width=".05" fill="#3e9bd5"/><path d="M40 640h80v10.65h-2.64c-1.52 0-2.72 1.23-2.72 2.68 0 1.5 1.2 2.67 2.72 2.67H120v10.66H40V656h2.64c1.52 0 2.72-1.18 2.72-2.67 0-1.45-1.2-2.68-2.72-2.68H40V640zm10.64 10.65V656H56v-5.35h-5.36zm40-7.98v5.3H96v-5.3h-5.36zm-8 0v5.3H88v-5.3h-5.36zm-8 0v5.3H80v-5.3h-5.36zm-8 0v5.3H72v-5.3h-5.36zm-8 0v5.3H64v-5.3h-5.36zm-8 0v5.3H56v-5.3h-5.36zm40 16v5.3H96v-5.3h-5.36zm-8 0v5.3H88v-5.3h-5.36zm-8 0v5.3H80v-5.3h-5.36zm-8 0v5.3H72v-5.3h-5.36zm-8 0v5.3H64v-5.3h-5.36zm-8 0v5.3H56v-5.3h-5.36zm40-8.02V656H96v-5.35h-5.36zm-8 0V656H88v-5.35h-5.36zm-8 0V656H80v-5.35h-5.36zm-8 0V656H72v-5.35h-5.36zm-8 0V656H64v-5.35h-5.36zm42.72 8.03v5.3h8v-5.3h-8zm4-16c-3.68 0-6.72 3-6.72 6.66 0 3.67 3.04 6.66 6.72 6.66 3.68 0 6.64-3 6.64-6.66 0-3.67-2.96-6.67-6.64-6.67z" stroke="#000" stroke-opacity="0" stroke-width=".05" fill="#252525"/><path d="M180 600.67h120V720H180z" stroke="#000" stroke-width="2" fill="#fff"/><path d="M242.64 674c1.52 0 2.72 1.2 2.72 2.7H256v5.3h-10.64c0 1.5-1.2 2.67-2.72 2.67h-5.28c-1.52 0-2.72-1.18-2.72-2.68H224v-5.3h10.64c0-1.5 1.2-2.7 2.72-2.7v-5.34h5.28V674zM265.36 644.68c2.16 0 4 1.77 4 4 0 2.2-1.84 3.98-4 3.98-2.24 0-4-1.77-4-4 0-2.2 1.76-3.98 4-3.98z" stroke="#000" stroke-opacity="0" stroke-width=".05" fill="#3e9bd5"/><path d="M200 639.33h80V650h-2.64c-1.52 0-2.72 1.2-2.72 2.66 0 1.5 1.2 2.68 2.72 2.68H280V666h-80v-10.66h2.64c1.52 0 2.72-1.18 2.72-2.68 0-1.45-1.2-2.67-2.72-2.67H200v-10.67zM210.64 650v5.34H216V650h-5.36zm40-8v5.3H256V642h-5.36zm-8 0v5.3H248V642h-5.36zm-8 0v5.3H240V642h-5.36zm-8 0v5.3H232V642h-5.36zm-8 0v5.3H224V642h-5.36zm-8 0v5.3H216V642h-5.36zm40 16v5.3H256V658h-5.36zm-8 0v5.3H248V658h-5.36zm-8 0v5.3H240V658h-5.36zm-8 0v5.3H232V658h-5.36zm-8 0v5.3H224V658h-5.36zm-8 0v5.3H216V658h-5.36zm40-8v5.34H256V650h-5.36zm-8 0v5.34H248V650h-5.36zm-8 0v5.34H240V650h-5.36zm-8 0v5.34H232V650h-5.36zm-8 0v5.34H224V650h-5.36zm42.72 8v5.3h8V658h-8zm4-16c-3.68 0-6.72 3-6.72 6.67s3.04 6.67 6.72 6.67c3.68 0 6.64-3 6.64-6.67s-2.96-6.66-6.64-6.66z" stroke="#000" stroke-opacity="0" stroke-width=".05" fill="#252525"/><path d="M156.27 522.43L81.4 598.9" stroke="#000" stroke-width="4" fill="none"/><path d="M157.66 523.86l-2.86-2.8.07-.06h5.6zM82.86 600.26l-.06.07h-5.6l2.8-2.87z"/><path d="M161.87 522.4l76.7 75.86" stroke="#000" stroke-width="4" fill="none"/><path d="M163.32 521.02l-2.82 2.84-2.9-2.86h5.7zM242.84 599.67h-5.68l-.02-.02 2.8-2.85z"/><path d="M340 80h280v440H340z" stroke="#000" stroke-width="2" fill="#fff"/><path d="M360 380h240v120H360z" stroke="#000" stroke-width="2" fill="#fff"/><use xlink:href="#a" transform="matrix(1,0,0,1,365,385) translate(108 35)"/><use xlink:href="#b" transform="matrix(1,0,0,1,365,385) translate(108 59)"/><use xlink:href="#c" transform="matrix(1,0,0,1,365,385) translate(108 83)"/><path d="M454.08 422.64c3.6 2.56 5.92 6.88 5.92 11.6 0 7.84-6.4 14.24-14.24 14.24l-17.68.08c-.4-1.04-.96-2-1.68-2.88.72-.8 1.28-1.76 1.68-2.88h17.6c4.8 0 8.64-3.84 8.64-8.56 0-4.16-3.04-7.68-6.96-8.4.64-1.36 1.04-2.8 1.04-4.4 0-5.52-4.48-10-10-10-3.12 0-5.84 1.36-7.68 3.52-1.52-5.36-6.48-9.28-12.32-9.28-7.12 0-12.88 5.76-12.88 12.88 0 .64.08 1.2.16 1.76-3.2.8-5.84 2.64-7.36 5.36h-6.16c1.36-3.92 4.08-7.2 7.76-9.2 1.04-9.28 8.88-16.48 18.48-16.48 5.68 0 10.88 2.56 14.32 6.8 1.76-.72 3.68-1.12 5.68-1.12 8.64 0 15.68 7.04 15.68 15.76v1.2z" stroke="#000" stroke-opacity="0" stroke-width=".06" fill="#3e9bd5"/><path d="M385.68 428.56H420c3.12 0 5.68 2.56 5.68 5.76V440c0 3.12-2.56 5.68-5.68 5.68 3.12 0 5.68 2.64 5.68 5.76v5.68c0 3.2-2.56 5.76-5.68 5.76 3.12 0 5.68 2.56 5.68 5.68v5.76c0 3.12-2.56 5.68-5.68 5.68h-34.32c-3.12 0-5.68-2.56-5.68-5.68v-5.76c0-3.12 2.56-5.68 5.68-5.68-3.12 0-5.68-2.56-5.68-5.76v-5.68c0-3.2 2.56-5.76 5.68-5.76-3.12 0-5.68-2.56-5.68-5.68v-5.68c0-3.2 2.56-5.76 5.68-5.76zm1.2 40c-.64 0-1.2.64-1.2 1.44v2.88c0 .8.56 1.44 1.2 1.44h16v-5.76h-16zm0-34.24c-.64 0-1.2.64-1.2 1.36v2.88c0 .8.56 1.44 1.2 1.44h16v-5.68h-16zm0 17.12c-.64 0-1.2.64-1.2 1.44v2.8c0 .8.56 1.44 1.2 1.44h16v-5.68h-16z" stroke="#000" stroke-opacity="0" stroke-width=".06" fill="#252525"/><path d="M360 240h240v120H360z" stroke="#000" stroke-width="2" fill="#fff"/><use xlink:href="#d" transform="matrix(1,0,0,1,365,245) translate(108 47)"/><use xlink:href="#e" transform="matrix(1,0,0,1,365,245) translate(108 71)"/><path d="M449.44 287.2c-.08.17-.16.34-.08.6l.64 5.46c.08.85-.32 1.7-1.12 2.05-1.28.6-2.56 1.12-3.84 1.46-.88.25-1.68 0-2.24-.7l-3.2-4.5c-.16-.18-.32-.35-.56-.35-1.12-.08-2.24-.25-3.28-.6-.16.1-.32.1-.48.27l-4.48 3.33c-.72.5-1.6.5-2.32 0-1.12-.77-2.16-1.62-3.2-2.56-.64-.6-.8-1.45-.48-2.3l2.32-5.04c.08-.26.08-.43 0-.6-.48-1.02-.88-2.05-1.2-3.16-.08-.17-.24-.25-.4-.34l-5.12-2.22c-.8-.34-1.28-1.1-1.2-1.96.16-1.37.32-2.73.64-4.1.24-.85.88-1.45 1.76-1.53l5.52-.53c.24 0 .4-.17.56-.25.64-.94 1.28-1.8 2.08-2.56.16-.17.16-.43.16-.6l-.72-5.55c-.08-.84.4-1.6 1.12-1.95 1.28-.6 2.56-1.1 3.92-1.53.8-.26 1.68 0 2.16.76l3.28 4.53c.08.18.32.26.48.35 1.12 0 2.24.25 3.28.5.16 0 .4-.08.56-.16l4.4-3.34c.72-.5 1.6-.6 2.32-.08 1.2.85 2.24 1.62 3.28 2.64.64.6.8 1.45.4 2.22l-2.24 5.12c-.08.17-.16.43-.08.6.48.94.88 2.05 1.2 3.07.08.17.24.34.4.43l5.12 2.13c.8.33 1.28 1.1 1.2 1.95-.16 1.45-.32 2.73-.64 4.1-.16.85-.88 1.45-1.76 1.54l-5.52.58c-.24 0-.4.1-.56.26-.56.94-1.28 1.8-2.08 2.56zm-9.84-15.87c-3.2 0-5.84 2.56-5.84 5.8 0 3.16 2.64 5.8 5.84 5.8 3.2 0 5.84-2.64 5.84-5.8 0-3.24-2.64-5.8-5.84-5.8z" stroke="#000" stroke-opacity="0" stroke-width=".05" fill="#3e9bd5"/><path d="M424.32 293.6c.72.5 1.44 1.2 2.16 1.8.24.25.64.42 1.04.25l5.92-1.62c.96-.26 1.92.08 2.4.93.88 1.3 1.6 2.57 2.32 3.93.4.93.24 1.87-.48 2.55l-4.4 4.35c-.32.26-.4.6-.32 1.03.24.85.4 1.8.48 2.73 0 .42.24.77.64.94l5.6 2.56c.88.42 1.36 1.28 1.28 2.22-.24 1.53-.48 2.98-.88 4.52-.24.94-.96 1.62-1.92 1.62l-6.16.5c-.4 0-.72.18-.96.6-.4.78-.88 1.63-1.36 2.4-.24.34-.32.68-.08 1.1l2.64 5.56c.4.85.16 1.87-.48 2.56-1.2 1.02-2.32 1.96-3.6 2.9-.72.6-1.76.6-2.56 0l-5.04-3.67c-.32-.17-.64-.26-1.04-.1-.88.35-1.68.7-2.64.95-.32.1-.64.43-.72.77l-1.6 5.96c-.24.94-1.04 1.62-2 1.62-1.52.1-3.04.1-4.56 0-.96-.08-1.76-.76-2-1.62l-1.52-6.06c-.08-.34-.32-.68-.72-.76-.88-.26-1.76-.6-2.56-.94-.4-.17-.8-.17-1.12.08l-5.04 3.6c-.8.5-1.76.5-2.56-.1-1.28-.94-2.4-1.88-3.52-3-.72-.67-.88-1.6-.4-2.46l2.64-5.63c.16-.35.16-.7 0-1.04-.56-.76-.96-1.53-1.36-2.4-.24-.33-.56-.58-.96-.58l-6.16-.52c-.96-.08-1.68-.76-1.92-1.7-.4-1.54-.64-3-.8-4.53-.08-.93.4-1.87 1.28-2.2l5.68-2.57c.32-.18.56-.43.64-.86.08-.94.24-1.8.48-2.73.08-.34 0-.77-.32-1.02l-4.4-4.36c-.64-.7-.8-1.7-.4-2.57.72-1.36 1.44-2.64 2.32-3.92.56-.84 1.52-1.2 2.4-.93l6 1.7c.4.18.72 0 1.04-.25.64-.6 1.36-1.2 2.08-1.7.32-.26.48-.6.48-1.03l-.56-6.15c-.08-1.03.4-1.88 1.28-2.22 1.44-.7 2.8-1.2 4.32-1.62.96-.25 1.92.18 2.4.94l3.52 5.12c.24.35.56.52.96.52.96-.1 1.84-.1 2.8 0 .4 0 .72-.17.96-.52l3.52-5.12c.56-.76 1.52-1.1 2.4-.85 1.52.5 2.88 1 4.32 1.6.88.44 1.44 1.3 1.28 2.23l-.64 6.15c0 .42.16.76.48 1.02zm-13.84 6.83c-6.4 0-11.68 5.2-11.68 11.6 0 6.5 5.28 11.7 11.68 11.7 6.48 0 11.68-5.2 11.68-11.7 0-6.4-5.2-11.6-11.68-11.6z" stroke="#000" stroke-opacity="0" stroke-width=".05" fill="#252525"/><path d="M360 100h240v120H360z" stroke="#000" stroke-width="2" fill="#fff"/><use xlink:href="#f" transform="matrix(1,0,0,1,365,105) translate(108 35)"/><use xlink:href="#g" transform="matrix(1,0,0,1,365,105) translate(108 59)"/><use xlink:href="#c" transform="matrix(1,0,0,1,365,105) translate(108 83)"/><path d="M340 601.33h120v119.34H340z" stroke="#000" stroke-width="2" fill="#fff"/><path d="M402.64 674.68c1.52 0 2.72 1.18 2.72 2.67H416v5.3h-10.64c0 1.5-1.2 2.68-2.72 2.68h-5.28c-1.52 0-2.72-1.18-2.72-2.67H384v-5.3h10.64c0-1.5 1.2-2.68 2.72-2.68v-5.35h5.28v5.35zM425.36 645.35c2.16 0 4 1.77 4 4 0 2.2-1.84 3.98-4 3.98-2.24 0-4-1.77-4-4 0-2.2 1.76-3.98 4-3.98z" stroke="#000" stroke-opacity="0" stroke-width=".05" fill="#3e9bd5"/><path d="M360 640h80v10.65h-2.64c-1.52 0-2.72 1.23-2.72 2.68 0 1.5 1.2 2.67 2.72 2.67H440v10.66h-80V656h2.64c1.52 0 2.72-1.18 2.72-2.67 0-1.45-1.2-2.68-2.72-2.68H360V640zm10.64 10.65V656H376v-5.35h-5.36zm40-7.98v5.3H416v-5.3h-5.36zm-8 0v5.3H408v-5.3h-5.36zm-8 0v5.3H400v-5.3h-5.36zm-8 0v5.3H392v-5.3h-5.36zm-8 0v5.3H384v-5.3h-5.36zm-8 0v5.3H376v-5.3h-5.36zm40 16v5.3H416v-5.3h-5.36zm-8 0v5.3H408v-5.3h-5.36zm-8 0v5.3H400v-5.3h-5.36zm-8 0v5.3H392v-5.3h-5.36zm-8 0v5.3H384v-5.3h-5.36zm-8 0v5.3H376v-5.3h-5.36zm40-8.02V656H416v-5.35h-5.36zm-8 0V656H408v-5.35h-5.36zm-8 0V656H400v-5.35h-5.36zm-8 0V656H392v-5.35h-5.36zm-8 0V656H384v-5.35h-5.36zm42.72 8.03v5.3h8v-5.3h-8zm4-16c-3.68 0-6.72 3-6.72 6.66 0 3.67 3.04 6.66 6.72 6.66 3.68 0 6.64-3 6.64-6.66 0-3.67-2.96-6.67-6.64-6.67z" stroke="#000" stroke-opacity="0" stroke-width=".05" fill="#252525"/><path d="M500 600.67h120V720H500z" stroke="#000" stroke-width="2" fill="#fff"/><path d="M562.64 674c1.52 0 2.72 1.2 2.72 2.7H576v5.3h-10.64c0 1.5-1.2 2.67-2.72 2.67h-5.28c-1.52 0-2.72-1.18-2.72-2.68H544v-5.3h10.64c0-1.5 1.2-2.7 2.72-2.7v-5.34h5.28V674zM585.36 644.68c2.16 0 4 1.77 4 4 0 2.2-1.84 3.98-4 3.98-2.24 0-4-1.77-4-4 0-2.2 1.76-3.98 4-3.98z" stroke="#000" stroke-opacity="0" stroke-width=".05" fill="#3e9bd5"/><path d="M520 639.33h80V650h-2.64c-1.52 0-2.72 1.2-2.72 2.66 0 1.5 1.2 2.68 2.72 2.68H600V666h-80v-10.66h2.64c1.52 0 2.72-1.18 2.72-2.68 0-1.45-1.2-2.67-2.72-2.67H520v-10.67zM530.64 650v5.34H536V650h-5.36zm40-8v5.3H576V642h-5.36zm-8 0v5.3H568V642h-5.36zm-8 0v5.3H560V642h-5.36zm-8 0v5.3H552V642h-5.36zm-8 0v5.3H544V642h-5.36zm-8 0v5.3H536V642h-5.36zm40 16v5.3H576V658h-5.36zm-8 0v5.3H568V658h-5.36zm-8 0v5.3H560V658h-5.36zm-8 0v5.3H552V658h-5.36zm-8 0v5.3H544V658h-5.36zm-8 0v5.3H536V658h-5.36zm40-8v5.34H576V650h-5.36zm-8 0v5.34H568V650h-5.36zm-8 0v5.34H560V650h-5.36zm-8 0v5.34H552V650h-5.36zm-8 0v5.34H544V650h-5.36zm42.72 8v5.3h8V658h-8zm4-16c-3.68 0-6.72 3-6.72 6.67s3.04 6.67 6.72 6.67c3.68 0 6.64-3 6.64-6.67s-2.96-6.66-6.64-6.66z" stroke="#000" stroke-opacity="0" stroke-width=".05" fill="#252525"/><path d="M476.27 522.43L401.4 598.9" stroke="#000" stroke-width="4" fill="none"/><path d="M477.66 523.86l-2.86-2.8.07-.06h5.6zM402.86 600.26l-.06.07h-5.6l2.8-2.87z"/><path d="M481.87 522.4l76.7 75.86" stroke="#000" stroke-width="4" fill="none"/><path d="M483.32 521.02l-2.82 2.84-2.9-2.86h5.7zM562.84 599.67h-5.68l-.02-.02 2.8-2.85z"/><path d="M385.68 125.73h68.64c3.12 0 5.68 2.6 5.68 5.7v60c0 1.57-1.28 2.88-2.88 2.88h-74.24c-1.6 0-2.88-1.3-2.88-2.87v-60c0-3.16 2.56-5.7 5.68-5.7zm0 17.15v45.73h68.64V142.9h-68.64z" stroke="#000" stroke-opacity="0" stroke-width=".06" fill="#252525"/><path d="M425.68 171.47H440c1.6 0 2.88 1.24 2.88 2.8v5.77c0 1.58-1.28 2.8-2.88 2.8h-14.32c-1.52 0-2.8-1.22-2.8-2.8v-5.76c0-1.57 1.28-2.8 2.8-2.8zM400 171.47h14.32c1.52 0 2.8 1.24 2.8 2.8v5.77c0 1.58-1.28 2.8-2.8 2.8H400c-1.6 0-2.88-1.22-2.88-2.8v-5.76c0-1.57 1.28-2.8 2.88-2.8zM397.12 148.57h45.76v17.14h-45.76v-17.13zm2.88 2.88v11.45h40v-11.45h-40z" stroke="#000" stroke-opacity="0" stroke-width=".06" fill="#3e9bd5"/><path d="M1000 111.4c0 1.56-1.28 2.87-2.88 2.87h-74.2c-1.6 0-2.87-1.3-2.87-2.88V51.4c0-3.15 2.56-5.7 5.67-5.7h68.6c3.12 0 5.68 2.62 5.68 5.7v59.97zm-51.4-48.53v45.7h45.72v-45.7H948.6zm-22.88 0v45.7h17.2v-45.7h-17.2z" stroke="#000" stroke-opacity="0" stroke-width=".06" fill="#252525"/><path d="M974.34 65.75h11.35v11.37h-11.36V65.75zm-17.2 0h11.44v11.37h-11.43V65.75zM974.35 80h11.35v11.44h-11.36V80zm-17.2 0h11.44v11.44h-11.43V80zm17.2 14.25h11.35v11.45h-11.36V94.25zm-17.2 0h11.44v11.45h-11.43V94.25z" stroke="#000" stroke-opacity="0" stroke-width=".06" fill="#3e9bd5"/><path d="M928.6 68.56h11.44v5.75H928.6v-5.74zm0 17.13h11.44v5.74H928.6V85.7zm0-8.58h11.36v5.76H928.6v-5.76zM1365.68 45.73h68.64c3.12 0 5.68 2.6 5.68 5.7v60c0 1.57-1.28 2.88-2.88 2.88h-74.24c-1.6 0-2.88-1.3-2.88-2.87v-60c0-3.16 2.56-5.7 5.68-5.7zm0 17.15v45.73h68.64V62.9h-68.64z" stroke="#000" stroke-opacity="0" stroke-width=".06" fill="#252525"/><path d="M1405.68 91.47H1420c1.6 0 2.88 1.24 2.88 2.8v5.77c0 1.58-1.28 2.8-2.88 2.8h-14.32c-1.52 0-2.8-1.22-2.8-2.8v-5.76c0-1.57 1.28-2.8 2.8-2.8zM1380 91.47h14.32c1.52 0 2.8 1.24 2.8 2.8v5.77c0 1.58-1.28 2.8-2.8 2.8H1380c-1.6 0-2.88-1.22-2.88-2.8v-5.76c0-1.57 1.28-2.8 2.88-2.8zM1377.12 68.57h45.76V85.7h-45.76V68.58zm2.88 2.88V82.9h40V71.45h-40z" stroke="#000" stroke-opacity="0" stroke-width=".06" fill="#3e9bd5"/><path d="M660 220h240v300H660z" stroke="#000" stroke-opacity="0" stroke-width="2" fill="#fff" fill-opacity="0"/><use xlink:href="#t" transform="matrix(1,0,0,1,665,225.00000000000003) translate(50.02777777777777 149)"/><use xlink:href="#s" transform="matrix(1,0,0,1,665,225.00000000000003) translate(126.69444444444444 149)"/><path d="M1068.56 82.9h4.56l2-2.06c1.12-1.1 2.96-1.1 4.08 0l3.2 3.3 3.76-5.7c.88-1.3 2.64-1.64 4-.82.48.34.88.82 1.04 1.37l2.72 5.34 6.24-16.73c.56-1.5 2.24-2.25 3.68-1.7.96.4 1.68 1.23 1.84 2.26v-.07l4.08 24.74 4.72-11.1c.64-1.45 2.32-2.13 3.76-1.5.72.33 1.28.88 1.52 1.5l1.04 2.05v-.08c.56-.55 1.36-.82 2.08-.82h8.56v5.7h-7.36l-2.08 1.98c-.16.2-.48.4-.72.55-1.44.68-3.12.14-3.84-1.24l-.08-.28-6.16 14.33c-.32.9-1.12 1.58-2.16 1.72-1.52.27-3.04-.76-3.28-2.34l-4-23.8-4.8 12.9c-.24.7-.72 1.24-1.36 1.58-1.44.7-3.12.15-3.84-1.3l-3.52-7-2.96 4.47c-.16.14-.24.27-.4.4-1.12 1.18-2.96 1.18-4.08 0l-3.68-3.62-.8.82c-.48.48-1.2.82-2 .82h-5.76v-5.7z" stroke="#000" stroke-opacity="0" stroke-width=".06" fill="#3e9bd5"/><path d="M1065.68 45.73h68.64c3.12 0 5.68 2.6 5.68 5.7v60c0 1.57-1.28 2.88-2.88 2.88h-74.24c-1.6 0-2.88-1.3-2.88-2.87v-60c0-3.16 2.56-5.7 5.68-5.7zm0 17.15v45.73h68.64V62.9h-68.64z" stroke="#000" stroke-opacity="0" stroke-width=".06" fill="#252525"/><path d="M1200 20h120v120h-120z" stroke="#000" stroke-width="2" fill="#fff"/><path d="M1282.88 100.04h11.44v5.7h-11.44v-5.7zm-57.2 0h11.44v5.7h-11.44v-5.7zm14.32 0h11.44v5.7H1240v-5.7zm14.32 0h11.36v5.7h-11.36v-5.7zm14.24 0H1280v5.7h-11.44v-5.7zM1282.88 91.47h11.44v5.7h-11.44v-5.7zm-57.2 0h11.44v5.7h-11.44v-5.7zm14.32 0h11.44v5.7H1240v-5.7zm14.32 0h11.36v5.7h-11.36v-5.7zm14.24 0H1280v5.7h-11.44v-5.7zM1282.88 82.9h11.44v5.7h-11.44v-5.7zm-42.88 0h11.44v5.7H1240v-5.7zm14.32 0h11.36v5.7h-11.36v-5.7zm14.24 0H1280v5.7h-11.44v-5.7zM1268.56 74.33H1280v5.7h-11.44v-5.7zm-28.56 0h11.44v5.7H1240v-5.7zM1268.56 65.76H1280v5.7h-11.44z" stroke="#000" stroke-opacity="0" stroke-width=".06" fill="#3e9bd5"/><path d="M1225.68 45.73h68.64c3.12 0 5.68 2.6 5.68 5.7v60c0 1.57-1.28 2.88-2.88 2.88h-74.24c-1.6 0-2.88-1.3-2.88-2.87v-60c0-3.16 2.56-5.7 5.68-5.7zm-2.8 17.15v45.73h74.24V62.9h-74.24z" stroke="#000" stroke-opacity="0" stroke-width=".06" fill="#252525"/><path d="M660 20h240v119.33H660z" stroke="#000" stroke-opacity="0" stroke-width="2" fill="#fff" fill-opacity="0"/><use xlink:href="#u" transform="matrix(1,0,0,1,665,25) translate(7.416666666666657 59)"/><use xlink:href="#v" transform="matrix(1,0,0,1,665,25) translate(80.58333333333333 59)"/><use xlink:href="#q" transform="matrix(1,0,0,1,665,25) translate(169.30555555555557 59)"/><path d="M961.34 142.5l67.32 75" stroke="#000" stroke-width="4" fill="none"/><path d="M962.86 141.2l-2.98 2.66-2.57-2.86h5.4zM1032.7 219h-5.4l-.16-.2 2.98-2.66z"/><path d="M961.96 141.4l366.08 77.2" stroke="#000" stroke-width="4" fill="none"/><path d="M961.6 143.38l-4.95-1.04.28-1.34h5.17zM1333.35 217.66l-.28 1.34h-5.17l.5-2.38z"/><path d="M1098.66 142.5l-67.32 75" stroke="#000" stroke-width="4" fill="none"/><path d="M1100.12 143.86l-2.98-2.67.17-.2h5.4zM1032.86 218.8l-.17.2h-5.4l2.58-2.86z"/><path d="M1101.9 141.64l226.2 76.72" stroke="#000" stroke-width="4" fill="none"/><path d="M1101.3 143.55l-4.78-1.62.3-.93h5.35zM1333.48 218.07l-.3.93h-5.35l.87-2.55z"/><path d="M1258.1 141.64l-226.2 76.72" stroke="#000" stroke-width="4" fill="none"/><path d="M1263.48 141.93l-4.78 1.62-.87-2.55h5.34zM1032.17 219h-5.34l-.3-.93 4.77-1.62z"/><path d="M1261.34 142.5l67.32 75" stroke="#000" stroke-width="4" fill="none"/><path d="M1262.86 141.2l-2.98 2.66-2.57-2.86h5.4zM1332.7 219h-5.4l-.16-.2 2.98-2.66z"/><path d="M1398.04 141.4l-366.08 77.2" stroke="#000" stroke-width="4" fill="none"/><path d="M1403.35 142.34l-4.94 1.04-.5-2.38h5.17zM1032.1 219h-5.17l-.28-1.34 4.94-1.04z"/><path d="M1398.66 142.5l-67.32 75" stroke="#000" stroke-width="4" fill="none"/><path d="M1400.12 143.86l-2.98-2.67.17-.2h5.4zM1332.86 218.8l-.17.2h-5.4l2.58-2.86z"/><path d="M1200 599.67h120v120h-120z" stroke="#000" stroke-width="2" fill="#fff"/><path d="M1262.64 671.68c1.52 0 2.72 1.18 2.72 2.67H1276v5.3h-10.64c0 1.5-1.2 2.68-2.72 2.68h-5.28c-1.52 0-2.72-1.18-2.72-2.67H1244v-5.3h10.64c0-1.5 1.2-2.68 2.72-2.68v-5.35h5.28v5.35zM1285.36 642.35c2.16 0 4 1.77 4 4 0 2.2-1.84 3.98-4 3.98-2.24 0-4-1.77-4-4 0-2.2 1.76-3.98 4-3.98z" stroke="#000" stroke-opacity="0" stroke-width=".05" fill="#3e9bd5"/><path d="M1220 637h80v10.65h-2.64c-1.52 0-2.72 1.23-2.72 2.68 0 1.5 1.2 2.67 2.72 2.67h2.64v10.66h-80V653h2.64c1.52 0 2.72-1.18 2.72-2.67 0-1.45-1.2-2.68-2.72-2.68H1220V637zm10.64 10.65V653h5.36v-5.35h-5.36zm40-7.98v5.3h5.36v-5.3h-5.36zm-8 0v5.3h5.36v-5.3h-5.36zm-8 0v5.3h5.36v-5.3h-5.36zm-8 0v5.3h5.36v-5.3h-5.36zm-8 0v5.3h5.36v-5.3h-5.36zm-8 0v5.3h5.36v-5.3h-5.36zm40 16v5.3h5.36v-5.3h-5.36zm-8 0v5.3h5.36v-5.3h-5.36zm-8 0v5.3h5.36v-5.3h-5.36zm-8 0v5.3h5.36v-5.3h-5.36zm-8 0v5.3h5.36v-5.3h-5.36zm-8 0v5.3h5.36v-5.3h-5.36zm40-8.02V653h5.36v-5.35h-5.36zm-8 0V653h5.36v-5.35h-5.36zm-8 0V653h5.36v-5.35h-5.36zm-8 0V653h5.36v-5.35h-5.36zm-8 0V653h5.36v-5.35h-5.36zm42.72 8.03v5.3h8v-5.3h-8zm4-16c-3.68 0-6.72 3-6.72 6.66 0 3.67 3.04 6.66 6.72 6.66 3.68 0 6.64-3 6.64-6.66 0-3.67-2.96-6.67-6.64-6.67z" stroke="#000" stroke-opacity="0" stroke-width=".05" fill="#252525"/><path d="M1340 599h120v120h-120z" stroke="#000" stroke-width="2" fill="#fff"/><path d="M1402.64 671c1.52 0 2.72 1.2 2.72 2.7H1416v5.3h-10.64c0 1.5-1.2 2.67-2.72 2.67h-5.28c-1.52 0-2.72-1.18-2.72-2.68H1384v-5.3h10.64c0-1.5 1.2-2.7 2.72-2.7v-5.34h5.28V671zM1425.36 641.68c2.16 0 4 1.77 4 4 0 2.2-1.84 3.98-4 3.98-2.24 0-4-1.77-4-4 0-2.2 1.76-3.98 4-3.98z" stroke="#000" stroke-opacity="0" stroke-width=".05" fill="#3e9bd5"/><path d="M1360 636.33h80V647h-2.64c-1.52 0-2.72 1.2-2.72 2.66 0 1.5 1.2 2.68 2.72 2.68h2.64V663h-80v-10.66h2.64c1.52 0 2.72-1.18 2.72-2.68 0-1.45-1.2-2.67-2.72-2.67H1360v-10.67zm10.64 10.66v5.34h5.36V647h-5.36zm40-8v5.3h5.36V639h-5.36zm-8 0v5.3h5.36V639h-5.36zm-8 0v5.3h5.36V639h-5.36zm-8 0v5.3h5.36V639h-5.36zm-8 0v5.3h5.36V639h-5.36zm-8 0v5.3h5.36V639h-5.36zm40 16v5.3h5.36V655h-5.36zm-8 0v5.3h5.36V655h-5.36zm-8 0v5.3h5.36V655h-5.36zm-8 0v5.3h5.36V655h-5.36zm-8 0v5.3h5.36V655h-5.36zm-8 0v5.3h5.36V655h-5.36zm40-8v5.34h5.36V647h-5.36zm-8 0v5.34h5.36V647h-5.36zm-8 0v5.34h5.36V647h-5.36zm-8 0v5.34h5.36V647h-5.36zm-8 0v5.34h5.36V647h-5.36zm42.72 8v5.3h8V655h-8zm4-16c-3.68 0-6.72 3-6.72 6.67s3.04 6.67 6.72 6.67c3.68 0 6.64-3 6.64-6.67s-2.96-6.66-6.64-6.66z" stroke="#000" stroke-opacity="0" stroke-width=".05" fill="#252525"/><path d="M1328.67 521.5l-67.34 75.67M1328.64 521.53L1330 520" stroke="#000" stroke-width="4" fill="none"/><path d="M1262.86 598.46l-.18.2h-5.36l2.55-2.86z"/><path d="M1329.1 522.46l69.53 74.08" stroke="#000" stroke-width="4" fill="none"/><path d="M1330.6 521.13l-2.93 2.73-2.7-2.86h5.5zM1402.74 598h-5.48l-.12-.13 2.9-2.73z"/><path d="M1163 370h34" stroke="#000" stroke-width="4" fill="none"/><path d="M1163.05 372H1161v-4h2.05zM1199 372h-2.05v-4h2.05z"/><defs><path d="M24-248c120-7 223 5 221 122C244-46 201 0 124 0H24v-248zM76-40c74 7 117-18 117-86 0-67-45-88-117-82v168" id="w"/><path d="M133-34C117-15 103 5 69 4 32 3 11-16 11-54c-1-60 55-63 116-61 1-26-3-47-28-47-18 1-26 9-28 27l-52-2c7-38 36-58 82-57s74 22 75 68l1 82c-1 14 12 18 25 15v27c-30 8-71 5-69-32zm-48 3c29 0 43-24 42-57-32 0-66-3-65 30 0 17 8 27 23 27" id="x"/><path d="M115-3C79 11 28 4 28-45v-112H4v-33h27l15-45h31v45h36v33H77v99c-1 23 16 31 38 25v30" id="y"/><g id="a"><use transform="matrix(0.05555555555555555,0,0,0.05555555555555555,0,0)" xlink:href="#w"/><use transform="matrix(0.05555555555555555,0,0,0.05555555555555555,14.388888888888888,0)" xlink:href="#x"/><use transform="matrix(0.05555555555555555,0,0,0.05555555555555555,25.5,0)" xlink:href="#y"/><use transform="matrix(0.05555555555555555,0,0,0.05555555555555555,32.111111111111114,0)" xlink:href="#x"/></g><path d="M199 0l-22-63H83L61 0H9l90-248h61L250 0h-51zm-33-102l-36-108c-10 38-24 72-36 108h72" id="z"/><path d="M190-63c-7 42-38 67-86 67-59 0-84-38-90-98-12-110 154-137 174-36l-49 2c-2-19-15-32-35-32-30 0-35 28-38 64-6 74 65 87 74 30" id="A"/><path d="M185-48c-13 30-37 53-82 52C43 2 14-33 14-96s30-98 90-98c62 0 83 45 84 108H66c0 31 8 55 39 56 18 0 30-7 34-22zm-45-69c5-46-57-63-70-21-2 6-4 13-4 21h74" id="B"/><path d="M137-138c1-29-70-34-71-4 15 46 118 7 119 86 1 83-164 76-172 9l43-7c4 19 20 25 44 25 33 8 57-30 24-41C81-84 22-81 20-136c-2-80 154-74 161-7" id="C"/><g id="b"><use transform="matrix(0.05555555555555555,0,0,0.05555555555555555,0,0)" xlink:href="#z"/><use transform="matrix(0.05555555555555555,0,0,0.05555555555555555,14.388888888888888,0)" xlink:href="#A"/><use transform="matrix(0.05555555555555555,0,0,0.05555555555555555,25.5,0)" xlink:href="#A"/><use transform="matrix(0.05555555555555555,0,0,0.05555555555555555,36.611111111111114,0)" xlink:href="#B"/><use transform="matrix(0.05555555555555555,0,0,0.05555555555555555,47.72222222222223,0)" xlink:href="#C"/><use transform="matrix(0.05555555555555555,0,0,0.05555555555555555,58.83333333333334,0)" xlink:href="#C"/></g><path d="M24 0v-248h52v208h133V0H24" id="D"/><path d="M123 10C108 53 80 86 19 72V37c35 8 53-11 59-39L3-190h52l48 148c12-52 28-100 44-148h51" id="E"/><path d="M135-150c-39-12-60 13-60 57V0H25l-1-190h47c2 13-1 29 3 40 6-28 27-53 61-41v41" id="F"/><g id="c"><use transform="matrix(0.05555555555555555,0,0,0.05555555555555555,0,0)" xlink:href="#D"/><use transform="matrix(0.05555555555555555,0,0,0.05555555555555555,12.166666666666666,0)" xlink:href="#x"/><use transform="matrix(0.05555555555555555,0,0,0.05555555555555555,23.27777777777778,0)" xlink:href="#E"/><use transform="matrix(0.05555555555555555,0,0,0.05555555555555555,34.388888888888886,0)" xlink:href="#B"/><use transform="matrix(0.05555555555555555,0,0,0.05555555555555555,45.5,0)" xlink:href="#F"/></g><path d="M230 0l2-204L168 0h-37L68-204 70 0H24v-248h70l56 185 57-185h69V0h-46" id="G"/><path d="M110-194c64 0 96 36 96 99 0 64-35 99-97 99-61 0-95-36-95-99 0-62 34-99 96-99zm-1 164c35 0 45-28 45-65 0-40-10-65-43-65-34 0-45 26-45 65 0 36 10 65 43 65" id="H"/><path d="M88-194c31-1 46 15 58 34l-1-101h50l1 261h-48c-2-10 0-23-3-31C134-8 116 4 84 4 32 4 16-41 15-95c0-56 19-97 73-99zm17 164c33 0 40-30 41-66 1-37-9-64-41-64s-38 30-39 65c0 43 13 65 39 65" id="I"/><path d="M25 0v-261h50V0H25" id="J"/><g id="d"><use transform="matrix(0.05555555555555555,0,0,0.05555555555555555,0,0)" xlink:href="#G"/><use transform="matrix(0.05555555555555555,0,0,0.05555555555555555,16.61111111111111,0)" xlink:href="#H"/><use transform="matrix(0.05555555555555555,0,0,0.05555555555555555,28.777777777777775,0)" xlink:href="#I"/><use transform="matrix(0.05555555555555555,0,0,0.05555555555555555,40.94444444444444,0)" xlink:href="#B"/><use transform="matrix(0.05555555555555555,0,0,0.05555555555555555,52.05555555555556,0)" xlink:href="#J"/></g><g id="e"><use transform="matrix(0.05555555555555555,0,0,0.05555555555555555,0,0)" xlink:href="#D"/><use transform="matrix(0.05555555555555555,0,0,0.05555555555555555,12.166666666666666,0)" xlink:href="#x"/><use transform="matrix(0.05555555555555555,0,0,0.05555555555555555,23.27777777777778,0)" xlink:href="#E"/><use transform="matrix(0.05555555555555555,0,0,0.05555555555555555,34.388888888888886,0)" xlink:href="#B"/><use transform="matrix(0.05555555555555555,0,0,0.05555555555555555,45.5,0)" xlink:href="#F"/></g><path d="M186 0v-106H76V0H24v-248h52v99h110v-99h50V0h-50" id="K"/><path d="M85 4C-2 5 27-109 22-190h50c7 57-23 150 33 157 60-5 35-97 40-157h50l1 190h-47c-2-12 1-28-3-38-12 25-28 42-61 42" id="L"/><path d="M220-157c-53 9-28 100-34 157h-49v-107c1-27-5-49-29-50C55-147 81-57 75 0H25l-1-190h47c2 12-1 28 3 38 10-53 101-56 108 0 13-22 24-43 59-42 82 1 51 116 57 194h-49v-107c-1-25-5-48-29-50" id="M"/><path d="M135-194c87-1 58 113 63 194h-50c-7-57 23-157-34-157-59 0-34 97-39 157H25l-1-190h47c2 12-1 28 3 38 12-26 28-41 61-42" id="N"/><g id="f"><use transform="matrix(0.05555555555555555,0,0,0.05555555555555555,0,0)" xlink:href="#K"/><use transform="matrix(0.05555555555555555,0,0,0.05555555555555555,14.388888888888888,0)" xlink:href="#L"/><use transform="matrix(0.05555555555555555,0,0,0.05555555555555555,26.555555555555554,0)" xlink:href="#M"/><use transform="matrix(0.05555555555555555,0,0,0.05555555555555555,44.33333333333333,0)" xlink:href="#x"/><use transform="matrix(0.05555555555555555,0,0,0.05555555555555555,55.44444444444444,0)" xlink:href="#N"/></g><path d="M24 0v-248h52V0H24" id="O"/><path d="M121-226c-27-7-43 5-38 36h38v33H83V0H34v-157H6v-33h28c-9-59 32-81 87-68v32" id="P"/><g id="g"><use transform="matrix(0.05555555555555555,0,0,0.05555555555555555,0,0)" xlink:href="#O"/><use transform="matrix(0.05555555555555555,0,0,0.05555555555555555,5.555555555555555,0)" xlink:href="#N"/><use transform="matrix(0.05555555555555555,0,0,0.05555555555555555,17.72222222222222,0)" xlink:href="#y"/><use transform="matrix(0.05555555555555555,0,0,0.05555555555555555,24.333333333333332,0)" xlink:href="#B"/><use transform="matrix(0.05555555555555555,0,0,0.05555555555555555,35.44444444444444,0)" xlink:href="#F"/><use transform="matrix(0.05555555555555555,0,0,0.05555555555555555,43.22222222222222,0)" xlink:href="#P"/><use transform="matrix(0.05555555555555555,0,0,0.05555555555555555,49.83333333333333,0)" xlink:href="#x"/><use transform="matrix(0.05555555555555555,0,0,0.05555555555555555,60.94444444444444,0)" xlink:href="#A"/><use transform="matrix(0.05555555555555555,0,0,0.05555555555555555,72.05555555555556,0)" xlink:href="#B"/></g><path d="M67-93c0 74 22 123 53 168H70C40 30 18-18 18-93s22-123 52-168h50c-32 44-53 94-53 168" id="Q"/><path d="M102-93c0 74-22 123-52 168H0C30 29 54-18 53-93c0-74-22-123-53-168h50c30 45 52 94 52 168" id="R"/><g id="h"><use transform="matrix(0.08641975308641976,0,0,0.08641975308641976,0,0)" xlink:href="#Q"/><use transform="matrix(0.08641975308641976,0,0,0.08641975308641976,10.283950617283951,0)" xlink:href="#x"/><use transform="matrix(0.08641975308641976,0,0,0.08641975308641976,27.567901234567906,0)" xlink:href="#R"/></g><path d="M135-194c52 0 70 43 70 98 0 56-19 99-73 100-30 1-46-15-58-35L72 0H24l1-261h50v104c11-23 29-37 60-37zM114-30c31 0 40-27 40-66 0-37-7-63-39-63s-41 28-41 65c0 36 8 64 40 64" id="S"/><g id="i"><use transform="matrix(0.08641975308641976,0,0,0.08641975308641976,0,0)" xlink:href="#Q"/><use transform="matrix(0.08641975308641976,0,0,0.08641975308641976,10.283950617283951,0)" xlink:href="#S"/><use transform="matrix(0.08641975308641976,0,0,0.08641975308641976,29.20987654320988,0)" xlink:href="#R"/></g><g id="j"><use transform="matrix(0.05555555555555555,0,0,0.05555555555555555,0,0)" xlink:href="#w"/><use transform="matrix(0.05555555555555555,0,0,0.05555555555555555,14.388888888888888,0)" xlink:href="#x"/><use transform="matrix(0.05555555555555555,0,0,0.05555555555555555,25.5,0)" xlink:href="#y"/><use transform="matrix(0.05555555555555555,0,0,0.05555555555555555,32.111111111111114,0)" xlink:href="#x"/></g><path d="M169-182c-1-43-94-46-97-3 18 66 151 10 154 114 3 95-165 93-204 36-6-8-10-19-12-30l50-8c3 46 112 56 116 5-17-69-150-10-154-114-4-87 153-88 188-35 5 8 8 18 10 28" id="T"/><path d="M195-6C206 82 75 100 31 46c-4-6-6-13-8-21l49-6c3 16 16 24 34 25 40 0 42-37 40-79-11 22-30 35-61 35-53 0-70-43-70-97 0-56 18-96 73-97 30 0 46 14 59 34l2-30h47zm-90-29c32 0 41-27 41-63 0-35-9-62-40-62-32 0-39 29-40 63 0 36 9 62 39 62" id="U"/><g id="k"><use transform="matrix(0.05555555555555555,0,0,0.05555555555555555,0,0)" xlink:href="#T"/><use transform="matrix(0.05555555555555555,0,0,0.05555555555555555,13.333333333333332,0)" xlink:href="#y"/><use transform="matrix(0.05555555555555555,0,0,0.05555555555555555,19.944444444444443,0)" xlink:href="#H"/><use transform="matrix(0.05555555555555555,0,0,0.05555555555555555,32.11111111111111,0)" xlink:href="#F"/><use transform="matrix(0.05555555555555555,0,0,0.05555555555555555,39.888888888888886,0)" xlink:href="#x"/><use transform="matrix(0.05555555555555555,0,0,0.05555555555555555,51,0)" xlink:href="#U"/><use transform="matrix(0.05555555555555555,0,0,0.05555555555555555,63.166666666666664,0)" xlink:href="#B"/></g><path d="M168-19C124 19 11 11 16-68c3-43 29-60 59-75-25-44-12-111 53-106 37 3 64 15 64 52 0 43-40 52-69 68 12 22 27 41 43 59 14-19 21-38 28-64l37 13c-8 29-19 52-34 74 12 10 32 16 52 10v35c-28 11-65-2-81-17zm-58-139c19-9 43-14 43-39 0-14-10-22-25-22-34 0-33 41-18 61zM60-68c-3 40 55 47 79 25-18-20-34-42-48-67-18 8-30 20-31 42" id="V"/><use transform="matrix(0.05555555555555555,0,0,0.05555555555555555,0,0)" xlink:href="#V" id="l"/><path d="M144 0l-44-69L55 0H2l70-98-66-92h53l41 62 40-62h54l-67 91 71 99h-54" id="W"/><path d="M25-224v-37h50v37H25zM25 0v-190h50V0H25" id="X"/><g id="m"><use transform="matrix(0.05555555555555555,0,0,0.05555555555555555,0,0)" xlink:href="#O"/><use transform="matrix(0.05555555555555555,0,0,0.05555555555555555,5.555555555555555,0)" xlink:href="#N"/><use transform="matrix(0.05555555555555555,0,0,0.05555555555555555,17.72222222222222,0)" xlink:href="#I"/><use transform="matrix(0.05555555555555555,0,0,0.05555555555555555,29.888888888888886,0)" xlink:href="#B"/><use transform="matrix(0.05555555555555555,0,0,0.05555555555555555,41,0)" xlink:href="#W"/><use transform="matrix(0.05555555555555555,0,0,0.05555555555555555,52.111111111111114,0)" xlink:href="#X"/><use transform="matrix(0.05555555555555555,0,0,0.05555555555555555,57.66666666666668,0)" xlink:href="#N"/><use transform="matrix(0.05555555555555555,0,0,0.05555555555555555,69.83333333333334,0)" xlink:href="#U"/></g><g id="n"><use transform="matrix(0.05555555555555555,0,0,0.05555555555555555,0,0)" xlink:href="#D"/><use transform="matrix(0.05555555555555555,0,0,0.05555555555555555,12.166666666666666,0)" xlink:href="#x"/><use transform="matrix(0.05555555555555555,0,0,0.05555555555555555,23.27777777777778,0)" xlink:href="#E"/><use transform="matrix(0.05555555555555555,0,0,0.05555555555555555,34.388888888888886,0)" xlink:href="#B"/><use transform="matrix(0.05555555555555555,0,0,0.05555555555555555,45.5,0)" xlink:href="#F"/></g><g id="o"><use transform="matrix(0.05555555555555555,0,0,0.05555555555555555,0,0)" xlink:href="#w"/><use transform="matrix(0.05555555555555555,0,0,0.05555555555555555,14.388888888888888,0)" xlink:href="#x"/><use transform="matrix(0.05555555555555555,0,0,0.05555555555555555,25.5,0)" xlink:href="#y"/><use transform="matrix(0.05555555555555555,0,0,0.05555555555555555,32.111111111111114,0)" xlink:href="#x"/></g><g id="p"><use transform="matrix(0.05555555555555555,0,0,0.05555555555555555,0,0)" xlink:href="#z"/><use transform="matrix(0.05555555555555555,0,0,0.05555555555555555,14.388888888888888,0)" xlink:href="#A"/><use transform="matrix(0.05555555555555555,0,0,0.05555555555555555,25.5,0)" xlink:href="#A"/><use transform="matrix(0.05555555555555555,0,0,0.05555555555555555,36.611111111111114,0)" xlink:href="#B"/><use transform="matrix(0.05555555555555555,0,0,0.05555555555555555,47.72222222222223,0)" xlink:href="#C"/><use transform="matrix(0.05555555555555555,0,0,0.05555555555555555,58.83333333333334,0)" xlink:href="#C"/></g><g id="q"><use transform="matrix(0.05555555555555555,0,0,0.05555555555555555,0,0)" xlink:href="#D"/><use transform="matrix(0.05555555555555555,0,0,0.05555555555555555,12.166666666666666,0)" xlink:href="#x"/><use transform="matrix(0.05555555555555555,0,0,0.05555555555555555,23.27777777777778,0)" xlink:href="#E"/><use transform="matrix(0.05555555555555555,0,0,0.05555555555555555,34.388888888888886,0)" xlink:href="#B"/><use transform="matrix(0.05555555555555555,0,0,0.05555555555555555,45.5,0)" xlink:href="#F"/></g><g id="r"><use transform="matrix(0.05555555555555555,0,0,0.05555555555555555,0,0)" xlink:href="#G"/><use transform="matrix(0.05555555555555555,0,0,0.05555555555555555,16.61111111111111,0)" xlink:href="#H"/><use transform="matrix(0.05555555555555555,0,0,0.05555555555555555,28.777777777777775,0)" xlink:href="#I"/><use transform="matrix(0.05555555555555555,0,0,0.05555555555555555,40.94444444444444,0)" xlink:href="#B"/><use transform="matrix(0.05555555555555555,0,0,0.05555555555555555,52.05555555555556,0)" xlink:href="#J"/></g><g id="s"><use transform="matrix(0.05555555555555555,0,0,0.05555555555555555,0,0)" xlink:href="#D"/><use transform="matrix(0.05555555555555555,0,0,0.05555555555555555,12.166666666666666,0)" xlink:href="#x"/><use transform="matrix(0.05555555555555555,0,0,0.05555555555555555,23.27777777777778,0)" xlink:href="#E"/><use transform="matrix(0.05555555555555555,0,0,0.05555555555555555,34.388888888888886,0)" xlink:href="#B"/><use transform="matrix(0.05555555555555555,0,0,0.05555555555555555,45.5,0)" xlink:href="#F"/></g><path d="M128 0H69L1-190h53L99-40l48-150h52" id="Y"/><g id="t"><use transform="matrix(0.05555555555555555,0,0,0.05555555555555555,0,0)" xlink:href="#T"/><use transform="matrix(0.05555555555555555,0,0,0.05555555555555555,13.333333333333332,0)" xlink:href="#B"/><use transform="matrix(0.05555555555555555,0,0,0.05555555555555555,24.444444444444443,0)" xlink:href="#F"/><use transform="matrix(0.05555555555555555,0,0,0.05555555555555555,32.22222222222222,0)" xlink:href="#Y"/><use transform="matrix(0.05555555555555555,0,0,0.05555555555555555,43.33333333333333,0)" xlink:href="#X"/><use transform="matrix(0.05555555555555555,0,0,0.05555555555555555,48.888888888888886,0)" xlink:href="#A"/><use transform="matrix(0.05555555555555555,0,0,0.05555555555555555,60,0)" xlink:href="#B"/></g><g id="u"><use transform="matrix(0.05555555555555555,0,0,0.05555555555555555,0,0)" xlink:href="#K"/><use transform="matrix(0.05555555555555555,0,0,0.05555555555555555,14.388888888888888,0)" xlink:href="#L"/><use transform="matrix(0.05555555555555555,0,0,0.05555555555555555,26.555555555555554,0)" xlink:href="#M"/><use transform="matrix(0.05555555555555555,0,0,0.05555555555555555,44.33333333333333,0)" xlink:href="#x"/><use transform="matrix(0.05555555555555555,0,0,0.05555555555555555,55.44444444444444,0)" xlink:href="#N"/></g><g id="v"><use transform="matrix(0.05555555555555555,0,0,0.05555555555555555,0,0)" xlink:href="#O"/><use transform="matrix(0.05555555555555555,0,0,0.05555555555555555,5.555555555555555,0)" xlink:href="#N"/><use transform="matrix(0.05555555555555555,0,0,0.05555555555555555,17.72222222222222,0)" xlink:href="#y"/><use transform="matrix(0.05555555555555555,0,0,0.05555555555555555,24.333333333333332,0)" xlink:href="#B"/><use transform="matrix(0.05555555555555555,0,0,0.05555555555555555,35.44444444444444,0)" xlink:href="#F"/><use transform="matrix(0.05555555555555555,0,0,0.05555555555555555,43.22222222222222,0)" xlink:href="#P"/><use transform="matrix(0.05555555555555555,0,0,0.05555555555555555,49.83333333333333,0)" xlink:href="#x"/><use transform="matrix(0.05555555555555555,0,0,0.05555555555555555,60.94444444444444,0)" xlink:href="#A"/><use transform="matrix(0.05555555555555555,0,0,0.05555555555555555,72.05555555555556,0)" xlink:href="#B"/></g></defs></g></svg>